FrauncesItalic-LightOpMaxGoofyMax.ufo
<glyph name="ampersand" format="2">
  <advance width="1179"/>
  <unicode hex="0026"/>
  <outline>
    <contour>
      <point x="152" y="199" type="line" smooth="yes"/>
      <point x="5" y="67"/>
      <point x="-64" y="-78"/>
      <point x="-64" y="-271" type="curve" smooth="yes"/>
      <point x="-64" y="-369"/>
      <point x="-29" y="-408"/>
      <point x="13" y="-408" type="curve" smooth="yes"/>
      <point x="46" y="-408"/>
      <point x="71" y="-381"/>
      <point x="71" y="-348" type="curve" smooth="yes"/>
      <point x="71" y="-300"/>
      <point x="8" y="-278"/>
      <point x="8" y="-197" type="curve" smooth="yes"/>
      <point x="8" y="-73"/>
      <point x="51" y="45"/>
      <point x="179" y="161" type="curve" smooth="yes"/>
      <point x="1046" y="947" type="line" smooth="yes"/>
      <point x="1213" y="1097"/>
      <point x="1265" y="1201"/>
      <point x="1265" y="1335" type="curve" smooth="yes"/>
      <point x="1265" y="1417"/>
      <point x="1222" y="1466"/>
      <point x="1178" y="1466" type="curve" smooth="yes"/>
      <point x="1150" y="1466"/>
      <point x="1130" y="1436"/>
      <point x="1130" y="1408" type="curve" smooth="yes"/>
      <point x="1130" y="1362"/>
      <point x="1189" y="1334"/>
      <point x="1189" y="1274" type="curve" smooth="yes"/>
      <point x="1189" y="1186"/>
      <point x="1145" y="1102"/>
      <point x="1031" y="998" type="curve" smooth="yes"/>
    </contour>
    <contour>
      <point x="971" y="414" type="curve" smooth="yes"/>
      <point x="971" y="215"/>
      <point x="789" y="32"/>
      <point x="578" y="32" type="curve" smooth="yes"/>
      <point x="357" y="32"/>
      <point x="219" y="186"/>
      <point x="262" y="506" type="curve" smooth="yes"/>
      <point x="302" y="801"/>
      <point x="482" y="1043"/>
      <point x="684" y="1043" type="curve" smooth="yes"/>
      <point x="807" y="1043"/>
      <point x="865" y="967"/>
      <point x="865" y="850" type="curve" smooth="yes"/>
      <point x="865" y="819"/>
      <point x="847" y="780"/>
      <point x="821" y="749" type="curve"/>
      <point x="844" y="759"/>
      <point x="867" y="763"/>
      <point x="903" y="762" type="curve" smooth="yes"/>
      <point x="927" y="762"/>
      <point x="942" y="800"/>
      <point x="941" y="848" type="curve" smooth="yes"/>
      <point x="941" y="984"/>
      <point x="859" y="1086"/>
      <point x="703" y="1086" type="curve" smooth="yes"/>
      <point x="454" y="1086"/>
      <point x="245" y="843"/>
      <point x="190" y="504" type="curve" smooth="yes"/>
      <point x="138" y="179"/>
      <point x="311" y="-19"/>
      <point x="552" y="-19" type="curve" smooth="yes"/>
      <point x="858" y="-19"/>
      <point x="1060" y="266"/>
      <point x="1060" y="526" type="curve" smooth="yes"/>
      <point x="1060" y="585"/>
      <point x="1044" y="620"/>
      <point x="1006" y="620" type="curve" smooth="yes"/>
      <point x="973" y="620"/>
      <point x="953" y="589"/>
      <point x="953" y="545" type="curve" smooth="yes"/>
      <point x="953" y="508"/>
      <point x="971" y="481"/>
    </contour>
  </outline>
</glyph>
<glyph name="quotesingle" format="2">
  <advance width="242"/>
  <unicode hex="0027"/>
  <outline>
    <contour>
      <point x="237" y="1213" type="curve" smooth="yes"/>
      <point x="254" y="1213" type="line" smooth="yes"/>
      <point x="273" y="1213"/>
      <point x="278" y="1201"/>
      <point x="271" y="1170" type="curve" smooth="yes"/>
      <point x="256" y="1106"/>
      <point x="204" y="1047"/>
      <point x="142" y="1026" type="curve" smooth="yes"/>
      <point x="124" y="1020"/>
      <point x="113" y="1007"/>
      <point x="117" y="995" type="curve" smooth="yes"/>
      <point x="118" y="981"/>
      <point x="130" y="978"/>
      <point x="151" y="984" type="curve" smooth="yes"/>
      <point x="235" y="1008"/>
      <point x="311" y="1094"/>
      <point x="334" y="1195" type="curve" smooth="yes"/>
      <point x="361" y="1306"/>
      <point x="336" y="1361"/>
      <point x="283" y="1361" type="curve" smooth="yes"/>
      <point x="238" y="1361"/>
      <point x="198" y="1328"/>
      <point x="186" y="1284" type="curve" smooth="yes"/>
      <point x="177" y="1245"/>
      <point x="196" y="1213"/>
    </contour>
  </outline>
</glyph>
<glyph name="question" format="2">
  <advance width="684"/>
  <unicode hex="003F"/>
  <outline>
    <contour>
      <point x="306" y="630" type="line" smooth="yes"/>
      <point x="313" y="666"/>
      <point x="332" y="695"/>
      <point x="358" y="707" type="curve" smooth="yes"/>
      <point x="431" y="741" type="line" smooth="yes"/>
      <point x="593" y="818"/>
      <point x="660" y="923"/>
      <point x="687" y="1032" type="curve" smooth="yes"/>
      <point x="725" y="1187"/>
      <point x="653" y="1266"/>
      <point x="536" y="1266" type="curve" smooth="yes"/>
      <point x="425" y="1266"/>
      <point x="344" y="1212"/>
      <point x="316" y="1097" type="curve" smooth="yes"/>
      <point x="305" y="1058" type="line" smooth="yes"/>
      <point x="296" y="1023"/>
      <point x="268" y="1003"/>
      <point x="234" y="1003" type="curve" smooth="yes"/>
      <point x="202" y="1003"/>
      <point x="186" y="1031"/>
      <point x="197" y="1069" type="curve" smooth="yes"/>
      <point x="228" y="1198"/>
      <point x="393" y="1324"/>
      <point x="553" y="1324" type="curve" smooth="yes"/>
      <point x="714" y="1324"/>
      <point x="806" y="1213"/>
      <point x="761" y="1032" type="curve" smooth="yes"/>
      <point x="728" y="900"/>
      <point x="641" y="772"/>
      <point x="481" y="706" type="curve" smooth="yes"/>
      <point x="422" y="682" type="line" smooth="yes"/>
      <point x="397" y="672"/>
      <point x="382" y="651"/>
      <point x="372" y="616" type="curve" smooth="yes"/>
      <point x="322" y="445" type="line" smooth="yes"/>
      <point x="315" y="422"/>
      <point x="302" y="410"/>
      <point x="288" y="410" type="curve" smooth="yes"/>
      <point x="273" y="410"/>
      <point x="266" y="422"/>
      <point x="271" y="445" type="curve" smooth="yes"/>
    </contour>
    <component base="period" xOffset="73" yOffset="-7"/>
  </outline>
</glyph>
<glyph name="B" format="2">
  <advance width="1104"/>
  <unicode hex="0042"/>
  <outline>
    <contour>
      <point x="539" y="1288" type="curve" smooth="yes"/>
      <point x="549" y="1326"/>
      <point x="592" y="1347"/>
      <point x="690" y="1347" type="curve" smooth="yes"/>
      <point x="911" y="1347"/>
      <point x="1032" y="1226"/>
      <point x="996" y="1008" type="curve" smooth="yes"/>
      <point x="959" y="791"/>
      <point x="780" y="672"/>
      <point x="579" y="672" type="curve" smooth="yes"/>
      <point x="359" y="672" type="line"/>
      <point x="337" y="625" type="line"/>
      <point x="624" y="625" type="line" smooth="yes"/>
      <point x="834" y="625"/>
      <point x="937" y="529"/>
      <point x="913" y="349" type="curve" smooth="yes"/>
      <point x="887" y="153"/>
      <point x="716" y="46"/>
      <point x="452" y="46" type="curve" smooth="yes"/>
      <point x="278" y="46"/>
      <point x="241" y="73"/>
      <point x="250" y="121" type="curve" smooth="yes"/>
      <point x="276" y="278"/>
      <point x="456" y="981"/>
    </contour>
    <contour>
      <point x="397" y="1400" type="line" smooth="yes"/>
      <point x="348" y="1400"/>
      <point x="331" y="1385"/>
      <point x="331" y="1369" type="curve" smooth="yes"/>
      <point x="331" y="1358"/>
      <point x="345" y="1353"/>
      <point x="367" y="1350" type="curve" smooth="yes"/>
      <point x="427" y="1342" type="line" smooth="yes"/>
      <point x="452" y="1339"/>
      <point x="471" y="1324"/>
      <point x="465" y="1289" type="curve" smooth="yes"/>
      <point x="454" y="1212"/>
      <point x="328" y="669"/>
      <point x="177" y="125" type="curve" smooth="yes"/>
      <point x="168" y="93"/>
      <point x="133" y="65"/>
      <point x="83" y="53" type="curve" smooth="yes"/>
      <point x="38" y="44" type="line" smooth="yes"/>
      <point x="-7" y="36"/>
      <point x="-27" y="27"/>
      <point x="-27" y="19" type="curve" smooth="yes"/>
      <point x="-27" y="7"/>
      <point x="-16" y="0"/>
      <point x="9" y="0" type="curve" smooth="yes"/>
      <point x="439" y="0" type="line" smooth="yes"/>
      <point x="769" y="0"/>
      <point x="952" y="138"/>
      <point x="979" y="343" type="curve" smooth="yes"/>
      <point x="1004" y="535"/>
      <point x="882" y="664"/>
      <point x="619" y="664" type="curve"/>
      <point x="619" y="644" type="line"/>
      <point x="845" y="644"/>
      <point x="1032" y="774"/>
      <point x="1066" y="1014" type="curve" smooth="yes"/>
      <point x="1100" y="1248"/>
      <point x="960" y="1400"/>
      <point x="667" y="1400" type="curve" smooth="yes"/>
    </contour>
  </outline>
</glyph>
<glyph name="asciicircum" format="2">
  <advance width="872"/>
  <unicode hex="005E"/>
  <outline>
    <contour>
      <point x="695" y="1366" type="line"/>
      <point x="262" y="807" type="line" smooth="yes"/>
      <point x="248" y="790"/>
      <point x="237" y="786"/>
      <point x="226" y="786" type="curve" smooth="yes"/>
      <point x="203" y="786"/>
      <point x="208" y="820"/>
      <point x="238" y="856" type="curve" smooth="yes"/>
      <point x="622" y="1376" type="line" smooth="yes"/>
      <point x="649" y="1411"/>
      <point x="660" y="1419"/>
      <point x="678" y="1419" type="curve" smooth="yes"/>
      <point x="695" y="1419"/>
      <point x="703" y="1411"/>
      <point x="713" y="1376" type="curve" smooth="yes"/>
      <point x="838" y="856" type="line" smooth="yes"/>
      <point x="847" y="820"/>
      <point x="837" y="786"/>
      <point x="814" y="786" type="curve" smooth="yes"/>
      <point x="804" y="786"/>
      <point x="794" y="790"/>
      <point x="788" y="807" type="curve" smooth="yes"/>
      <point x="632" y="1366" type="line"/>
    </contour>
  </outline>
</glyph>
<glyph name="b" format="2">
  <advance width="810"/>
  <unicode hex="0062"/>
  <outline>
    <contour>
      <point x="367" y="1018" type="line" smooth="yes"/>
      <point x="438" y="1269"/>
      <point x="570" y="1376"/>
      <point x="721" y="1376" type="curve" smooth="yes"/>
      <point x="788" y="1376"/>
      <point x="835" y="1351"/>
      <point x="874" y="1351" type="curve" smooth="yes"/>
      <point x="912" y="1351"/>
      <point x="931" y="1364"/>
      <point x="931" y="1391" type="curve" smooth="yes"/>
      <point x="931" y="1413"/>
      <point x="908" y="1438"/>
      <point x="827" y="1438" type="curve" smooth="yes"/>
      <point x="592" y="1438"/>
      <point x="405" y="1327"/>
      <point x="317" y="1014" type="curve" smooth="yes"/>
      <point x="40" y="21" type="line" smooth="yes"/>
      <point x="34" y="0"/>
      <point x="39.0" y="-15"/>
      <point x="55" y="-15.0" type="curve" smooth="yes"/>
      <point x="66" y="-15"/>
      <point x="74" y="-6"/>
      <point x="78" y="8" type="curve" smooth="yes"/>
      <point x="135" y="187" type="line"/>
      <point x="115" y="194" type="line"/>
      <point x="99" y="68"/>
      <point x="176" y="-15.0"/>
      <point x="302" y="-15" type="curve" smooth="yes"/>
      <point x="526" y="-15.0"/>
      <point x="718.0251443990009" y="246.12688250572734"/>
      <point x="783" y="574" type="curve" smooth="yes"/>
      <point x="825.949260637747" y="787.7474831739034"/>
      <point x="725" y="865.0"/>
      <point x="621" y="865.0" type="curve" smooth="yes"/>
      <point x="448" y="865"/>
      <point x="291" y="697"/>
      <point x="199" y="481" type="curve"/>
      <point x="219" y="494" type="line"/>
    </contour>
    <contour>
      <point x="603" y="822" type="curve" smooth="yes"/>
      <point x="700.0" y="822.0"/>
      <point x="770.2361280968969" y="758.1452212699498"/>
      <point x="730" y="563" type="curve" smooth="yes"/>
      <point x="669.814169222093" y="276.1142066253102"/>
      <point x="497.0" y="28.0"/>
      <point x="312" y="28" type="curve" smooth="yes"/>
      <point x="189.0" y="28.0"/>
      <point x="127.73466595811519" y="111.75373404569248"/>
      <point x="161" y="268" type="curve" smooth="yes"/>
      <point x="213.1802346932289" y="512.8457166374587"/>
      <point x="421.0" y="822.0"/>
    </contour>
  </outline>
</glyph>
<glyph name="i" format="2">
  <advance width="412"/>
  <unicode hex="0069"/>
  <outline>
    <contour>
      <point x="150" y="159" type="curve" smooth="yes"/>
      <point x="335" y="695" type="line" smooth="yes"/>
      <point x="373" y="804"/>
      <point x="345" y="865"/>
      <point x="277" y="865" type="curve" smooth="yes"/>
      <point x="227" y="865"/>
      <point x="181" y="837"/>
      <point x="155" y="809" type="curve" smooth="yes"/>
      <point x="143" y="796"/>
      <point x="136" y="780"/>
      <point x="145" y="772" type="curve" smooth="yes"/>
      <point x="154" y="764"/>
      <point x="166" y="768"/>
      <point x="190" y="788" type="curve" smooth="yes"/>
      <point x="222" y="814"/>
      <point x="245" y="822"/>
      <point x="264" y="822" type="curve" smooth="yes"/>
      <point x="308" y="822"/>
      <point x="313" y="774"/>
      <point x="284" y="691" type="curve" smooth="yes"/>
      <point x="100" y="159" type="line" smooth="yes"/>
      <point x="60" y="43"/>
      <point x="89" y="-15"/>
      <point x="157" y="-15" type="curve" smooth="yes"/>
      <point x="207" y="-15"/>
      <point x="253" y="13"/>
      <point x="279" y="41" type="curve" smooth="yes"/>
      <point x="291" y="54"/>
      <point x="298" y="70"/>
      <point x="289" y="78" type="curve" smooth="yes"/>
      <point x="280" y="86"/>
      <point x="268" y="82"/>
      <point x="244" y="62" type="curve" smooth="yes"/>
      <point x="212" y="36"/>
      <point x="189" y="28"/>
      <point x="170" y="28" type="curve" smooth="yes"/>
      <point x="126" y="28"/>
      <point x="121" y="75"/>
    </contour>
    <contour>
      <point x="389.0" y="1085.0" type="curve" smooth="yes"/>
      <point x="439.0" y="1085.0"/>
      <point x="469.0" y="1137.0"/>
      <point x="469" y="1179" type="curve" smooth="yes"/>
      <point x="469.0" y="1220.0"/>
      <point x="443" y="1243.0"/>
      <point x="413" y="1243.0" type="curve" smooth="yes"/>
      <point x="363.0" y="1243.0"/>
      <point x="333" y="1191"/>
      <point x="333" y="1149" type="curve" smooth="yes"/>
      <point x="333.0" y="1108.0"/>
      <point x="359" y="1085.0"/>
    </contour>
  </outline>
</glyph>
<glyph name="k" format="2">
  <advance width="793"/>
  <unicode hex="006B"/>
  <anchor x="278" y="980" name="center"/>
  <outline>
    <contour>
      <point x="201" y="422" type="curve"/>
      <point x="181" y="434" type="line"/>
      <point x="299" y="701"/>
      <point x="498" y="865"/>
      <point x="653" y="865" type="curve" smooth="yes"/>
      <point x="744" y="865"/>
      <point x="813" y="810"/>
      <point x="799" y="700" type="curve" smooth="yes"/>
      <point x="781" y="554"/>
      <point x="572" y="399"/>
      <point x="155" y="309" type="curve"/>
      <point x="160" y="352" type="line"/>
      <point x="565" y="447"/>
      <point x="725" y="561"/>
      <point x="745" y="706" type="curve" smooth="yes"/>
      <point x="755" y="780"/>
      <point x="707.0" y="822.0"/>
      <point x="644" y="822" type="curve" smooth="yes"/>
      <point x="484.0" y="822.0"/>
      <point x="256" y="580"/>
      <point x="184" y="334" type="curve" smooth="yes"/>
      <point x="132" y="156"/>
      <point x="129" y="127"/>
      <point x="129" y="106" type="curve" smooth="yes"/>
      <point x="129" y="74"/>
      <point x="137" y="55"/>
      <point x="137" y="29" type="curve" smooth="yes"/>
      <point x="137" y="1"/>
      <point x="109" y="-15"/>
      <point x="77" y="-15" type="curve" smooth="yes"/>
      <point x="40" y="-15"/>
      <point x="39" y="13"/>
      <point x="69" y="121" type="curve" smooth="yes"/>
      <point x="319" y="1014" type="line" smooth="yes"/>
      <point x="407" y="1327"/>
      <point x="594" y="1438"/>
      <point x="829" y="1438" type="curve" smooth="yes"/>
      <point x="910" y="1438"/>
      <point x="933" y="1413"/>
      <point x="933" y="1391" type="curve" smooth="yes"/>
      <point x="933" y="1364"/>
      <point x="914" y="1351"/>
      <point x="876" y="1351" type="curve" smooth="yes"/>
      <point x="837" y="1351"/>
      <point x="790" y="1376"/>
      <point x="723" y="1376" type="curve" smooth="yes"/>
      <point x="572" y="1376"/>
      <point x="440" y="1269"/>
      <point x="369" y="1018" type="curve" smooth="yes"/>
      <point x="346" y="936"/>
      <point x="256.944" y="620.4680000000001"/>
    </contour>
    <contour>
      <point x="372" y="389" type="line"/>
      <point x="418" y="414" type="line"/>
      <point x="502" y="138" type="line" smooth="yes"/>
      <point x="529" y="48"/>
      <point x="556.0" y="28.0"/>
      <point x="593" y="28" type="curve" smooth="yes"/>
      <point x="621.0" y="28.0"/>
      <point x="639" y="45"/>
      <point x="656" y="78" type="curve" smooth="yes"/>
      <point x="664" y="94"/>
      <point x="675" y="98"/>
      <point x="685" y="94" type="curve" smooth="yes"/>
      <point x="695" y="90"/>
      <point x="698" y="80"/>
      <point x="690" y="61" type="curve" smooth="yes"/>
      <point x="672" y="17"/>
      <point x="637" y="-15"/>
      <point x="584" y="-15" type="curve" smooth="yes"/>
      <point x="523" y="-15"/>
      <point x="484" y="16"/>
      <point x="451" y="127" type="curve" smooth="yes"/>
    </contour>
  </outline>
</glyph>
<glyph name="o" format="2">
  <advance width="759"/>
  <unicode hex="006F"/>
  <anchor x="526" y="1000" name="center"/>
  <outline>
    <contour>
      <point x="469" y="865.0" type="curve" smooth="yes"/>
      <point x="292" y="865.0"/>
      <point x="133.9512052065469" y="743.7975675460796"/>
      <point x="60" y="437.0" type="curve" smooth="yes"/>
      <point x="-1" y="180"/>
      <point x="93.73660714285714" y="-15.0"/>
      <point x="289.0" y="-15.0" type="curve" smooth="yes"/>
      <point x="465.83816425120773" y="-15.0"/>
      <point x="624" y="106"/>
      <point x="698" y="413.0" type="curve" smooth="yes"/>
      <point x="759.0733840713337" y="670.309175513652"/>
      <point x="664" y="865.0"/>
    </contour>
    <contour>
      <point x="300.0" y="28.0" type="curve" smooth="yes"/>
      <point x="162.0" y="28.0"/>
      <point x="46" y="157"/>
      <point x="112" y="434.0" type="curve" smooth="yes"/>
      <point x="180.36627415293574" y="714.502801303957"/>
      <point x="321.0" y="822.0"/>
      <point x="458" y="822.0" type="curve" smooth="yes"/>
      <point x="596.0" y="822.0"/>
      <point x="712.3679908279659" y="692.5332951165238"/>
      <point x="646" y="416.0" type="curve" smooth="yes"/>
      <point x="578" y="135"/>
      <point x="437.0" y="28.0"/>
    </contour>
  </outline>
</glyph>
<glyph name="v" format="2">
  <advance width="810"/>
  <unicode hex="0076"/>
  <outline>
    <contour>
      <point x="769" y="715" type="curve" smooth="yes"/>
      <point x="769" y="828"/>
      <point x="734" y="865"/>
      <point x="695" y="865" type="curve" smooth="yes"/>
      <point x="671" y="865"/>
      <point x="653" y="847"/>
      <point x="653" y="824" type="curve" smooth="yes"/>
      <point x="653" y="804"/>
      <point x="662" y="788"/>
      <point x="692" y="764" type="curve" smooth="yes"/>
      <point x="715" y="745"/>
      <point x="719" y="713"/>
      <point x="719" y="649" type="curve" smooth="yes"/>
      <point x="719.0" y="386.0"/>
      <point x="514.0" y="28.0"/>
      <point x="327" y="28" type="curve" smooth="yes"/>
      <point x="250" y="28"/>
      <point x="212.0" y="79"/>
      <point x="212" y="177" type="curve" smooth="yes"/>
      <point x="212" y="369"/>
      <point x="371" y="533"/>
      <point x="451" y="798" type="curve" smooth="yes"/>
      <point x="466" y="848"/>
      <point x="461" y="865"/>
      <point x="445" y="865" type="curve" smooth="yes"/>
      <point x="426" y="865"/>
      <point x="417" y="837"/>
      <point x="389" y="837" type="curve" smooth="yes"/>
      <point x="344" y="837"/>
      <point x="267" y="865"/>
      <point x="204" y="865" type="curve" smooth="yes"/>
      <point x="115" y="865"/>
      <point x="60" y="794"/>
      <point x="60" y="707" type="curve" smooth="yes"/>
      <point x="60.0" y="653.0"/>
      <point x="80" y="635"/>
      <point x="103" y="635" type="curve" smooth="yes"/>
      <point x="124.0" y="635.0"/>
      <point x="143" y="651"/>
      <point x="143.0" y="673" type="curve" smooth="yes"/>
      <point x="143.0" y="684.0"/>
      <point x="137" y="695"/>
      <point x="131" y="704" type="curve" smooth="yes"/>
      <point x="119.0" y="721.0"/>
      <point x="117.0" y="728.0"/>
      <point x="117" y="739" type="curve" smooth="yes"/>
      <point x="117" y="786"/>
      <point x="148" y="822"/>
      <point x="197" y="822" type="curve" smooth="yes"/>
      <point x="265" y="822"/>
      <point x="349" y="790"/>
      <point x="411" y="790" type="curve"/>
      <point x="405" y="820" type="line"/>
      <point x="350" y="592"/>
      <point x="168" y="394"/>
      <point x="160" y="181" type="curve" smooth="yes"/>
      <point x="156.0" y="56"/>
      <point x="210" y="-15"/>
      <point x="320" y="-15" type="curve" smooth="yes"/>
      <point x="528.0" y="-15.0"/>
      <point x="769.0" y="321"/>
    </contour>
  </outline>
</glyph>
<glyph name="z" format="2">
  <advance width="684"/>
  <unicode hex="007A"/>
  <anchor x="493" y="998" name="center"/>
  <outline>
    <contour>
      <point x="98" y="81" type="curve"/>
      <point x="110" y="106" type="line"/>
      <point x="206.86904761904762" y="106.0"/>
      <point x="302" y="28.0"/>
      <point x="426" y="28" type="curve" smooth="yes"/>
      <point x="488.0" y="28.0"/>
      <point x="539" y="60"/>
      <point x="556" y="154" type="curve" smooth="yes"/>
      <point x="558" y="167"/>
      <point x="566" y="176"/>
      <point x="577" y="175" type="curve" smooth="yes"/>
      <point x="588" y="174"/>
      <point x="592" y="164"/>
      <point x="590" y="149" type="curve" smooth="yes"/>
      <point x="577.0" y="60"/>
      <point x="526.0" y="-15.0"/>
      <point x="419" y="-15" type="curve" smooth="yes"/>
      <point x="290" y="-15.0"/>
      <point x="175.08904109589042" y="60.0"/>
      <point x="121" y="60.0" type="curve" smooth="yes"/>
      <point x="62.795918367346935" y="60.0"/>
      <point x="78.12621359223303" y="-15.0"/>
      <point x="29" y="-15.0" type="curve"/>
      <point x="3.0" y="-15"/>
      <point x="-12.0" y="2.0"/>
      <point x="-12.0" y="28" type="curve" smooth="yes"/>
      <point x="-12" y="56.0"/>
      <point x="5" y="76"/>
      <point x="45" y="96" type="curve" smooth="yes"/>
      <point x="67.03907564296148" y="107.01953782148074"/>
      <point x="102" y="160"/>
      <point x="349" y="438" type="curve" smooth="yes"/>
      <point x="537" y="649"/>
      <point x="626" y="748"/>
      <point x="649" y="789" type="curve"/>
      <point x="656" y="763" type="line"/>
      <point x="549" y="763.0"/>
      <point x="421" y="822"/>
      <point x="324" y="822" type="curve" smooth="yes"/>
      <point x="247.0" y="822.0"/>
      <point x="222.0" y="792.0"/>
      <point x="222.0" y="754" type="curve" smooth="yes"/>
      <point x="222" y="737"/>
      <point x="226" y="723"/>
      <point x="243" y="707" type="curve" smooth="yes"/>
      <point x="257" y="693"/>
      <point x="261" y="683"/>
      <point x="261.0" y="668" type="curve" smooth="yes"/>
      <point x="261.0" y="648.0"/>
      <point x="247.0" y="633.0"/>
      <point x="225" y="633.0" type="curve" smooth="yes"/>
      <point x="192" y="633"/>
      <point x="165" y="663"/>
      <point x="165" y="713" type="curve" smooth="yes"/>
      <point x="165" y="809.0"/>
      <point x="219.0" y="865.0"/>
      <point x="328" y="865" type="curve" smooth="yes"/>
      <point x="436" y="865.0"/>
      <point x="546" y="812"/>
      <point x="631" y="812" type="curve" smooth="yes"/>
      <point x="691" y="812"/>
      <point x="679" y="865"/>
      <point x="721" y="865.0" type="curve" smooth="yes"/>
      <point x="741" y="865"/>
      <point x="751" y="851"/>
      <point x="751.0" y="824" type="curve" smooth="yes"/>
      <point x="751.0" y="800"/>
      <point x="740" y="778"/>
      <point x="707" y="768" type="curve" smooth="yes"/>
      <point x="692" y="763"/>
      <point x="649" y="717"/>
      <point x="376" y="410" type="curve" smooth="yes"/>
      <point x="209" y="223"/>
      <point x="164.37274632593517" y="164.4687567432215"/>
    </contour>
  </outline>
</glyph>
<glyph name="logicalnot" format="2">
  <advance width="997"/>
  <unicode hex="00AC"/>
  <outline>
    <contour>
      <point x="204" y="786" type="curve" smooth="yes"/>
      <point x="199" y="764"/>
      <point x="213" y="752"/>
      <point x="235" y="752" type="curve" smooth="yes"/>
      <point x="860" y="752" type="line"/>
      <point x="849" y="782" type="line"/>
      <point x="771" y="470" type="line" smooth="yes"/>
      <point x="766" y="450"/>
      <point x="773" y="432"/>
      <point x="791" y="432" type="curve" smooth="yes"/>
      <point x="812" y="432"/>
      <point x="829" y="448"/>
      <point x="835" y="469" type="curve" smooth="yes"/>
      <point x="912" y="777" type="line" smooth="yes"/>
      <point x="917" y="803"/>
      <point x="905" y="818"/>
      <point x="881" y="818" type="curve" smooth="yes"/>
      <point x="255" y="818" type="line" smooth="yes"/>
      <point x="232" y="818"/>
      <point x="210" y="806"/>
    </contour>
  </outline>
</glyph>
<glyph name="threesuperior" format="2">
  <advance width="555"/>
  <unicode hex="00B3"/>
  <outline>
    <contour>
      <point x="387" y="1082" type="line"/>
      <point x="683" y="1351" type="line" smooth="yes"/>
      <point x="700" y="1365"/>
      <point x="711" y="1374"/>
      <point x="715" y="1385" type="curve" smooth="yes"/>
      <point x="717" y="1394"/>
      <point x="710" y="1401"/>
      <point x="698" y="1401" type="curve" smooth="yes"/>
      <point x="372" y="1401" type="line" smooth="yes"/>
      <point x="348" y="1401"/>
      <point x="336" y="1390"/>
      <point x="329" y="1371" type="curve" smooth="yes"/>
      <point x="295" y="1280" type="line" smooth="yes"/>
      <point x="287" y="1259"/>
      <point x="291" y="1248"/>
      <point x="306" y="1248" type="curve" smooth="yes"/>
      <point x="319" y="1248"/>
      <point x="330" y="1257"/>
      <point x="341" y="1277" type="curve" smooth="yes"/>
      <point x="362" y="1320" type="line" smooth="yes"/>
      <point x="373" y="1342"/>
      <point x="384" y="1352"/>
      <point x="405" y="1352" type="curve" smooth="yes"/>
      <point x="660" y="1352" type="line"/>
      <point x="665" y="1383" type="line"/>
      <point x="380" y="1125" type="line" smooth="yes"/>
      <point x="365" y="1111"/>
      <point x="353" y="1101"/>
      <point x="349" y="1086" type="curve" smooth="yes"/>
      <point x="345" y="1072"/>
      <point x="354" y="1065"/>
      <point x="368" y="1065" type="curve" smooth="yes"/>
      <point x="399" y="1065" type="line" smooth="yes"/>
      <point x="523" y="1065"/>
      <point x="558" y="1010"/>
      <point x="532" y="907" type="curve" smooth="yes"/>
      <point x="510" y="816"/>
      <point x="431" y="766"/>
      <point x="348" y="766" type="curve" smooth="yes"/>
      <point x="263" y="766"/>
      <point x="228" y="801"/>
      <point x="240" y="852" type="curve" smooth="yes"/>
      <point x="250" y="886" type="line" smooth="yes"/>
      <point x="256" y="914"/>
      <point x="252" y="928"/>
      <point x="231" y="928" type="curve" smooth="yes"/>
      <point x="209" y="928"/>
      <point x="189" y="911"/>
      <point x="182" y="880" type="curve" smooth="yes"/>
      <point x="160" y="797"/>
      <point x="211" y="722"/>
      <point x="332" y="722" type="curve" smooth="yes"/>
      <point x="453" y="722"/>
      <point x="562" y="792"/>
      <point x="589" y="904" type="curve" smooth="yes"/>
      <point x="617" y="1019"/>
      <point x="569" y="1104"/>
      <point x="428" y="1104" type="curve" smooth="yes"/>
      <point x="423" y="1104"/>
      <point x="400" y="1104"/>
      <point x="395" y="1103" type="curve"/>
    </contour>
  </outline>
</glyph>
<glyph name="onesuperior" format="2">
  <advance width="470"/>
  <unicode hex="00B9"/>
  <outline>
    <contour>
      <point x="319" y="1327" type="line" smooth="yes"/>
      <point x="302" y="1327"/>
      <point x="296" y="1336"/>
      <point x="301" y="1354" type="curve" smooth="yes"/>
      <point x="304" y="1367"/>
      <point x="316" y="1377"/>
      <point x="331" y="1377" type="curve" smooth="yes"/>
      <point x="412" y="1377" type="line" smooth="yes"/>
      <point x="430" y="1377"/>
      <point x="438" y="1384"/>
      <point x="455" y="1407" type="curve" smooth="yes"/>
      <point x="465" y="1419"/>
      <point x="476" y="1425"/>
      <point x="488" y="1425" type="curve" smooth="yes"/>
      <point x="505" y="1425"/>
      <point x="511" y="1418"/>
      <point x="506" y="1396" type="curve" smooth="yes"/>
      <point x="364" y="828" type="line" smooth="yes"/>
      <point x="359" y="804"/>
      <point x="363" y="788"/>
      <point x="392" y="786" type="curve" smooth="yes"/>
      <point x="459" y="782" type="line" smooth="yes"/>
      <point x="471" y="781"/>
      <point x="476" y="770"/>
      <point x="473" y="758" type="curve" smooth="yes"/>
      <point x="469" y="746"/>
      <point x="461" y="739"/>
      <point x="447" y="739" type="curve" smooth="yes"/>
      <point x="167" y="739" type="line" smooth="yes"/>
      <point x="154" y="739"/>
      <point x="148" y="746"/>
      <point x="152" y="758" type="curve" smooth="yes"/>
      <point x="155" y="770"/>
      <point x="165" y="781"/>
      <point x="179" y="782" type="curve" smooth="yes"/>
      <point x="257" y="786" type="line" smooth="yes"/>
      <point x="281" y="788"/>
      <point x="299" y="804"/>
      <point x="305" y="829" type="curve" smooth="yes"/>
      <point x="419" y="1287" type="line" smooth="yes"/>
      <point x="427" y="1320"/>
      <point x="421" y="1327"/>
      <point x="397" y="1327" type="curve" smooth="yes"/>
    </contour>
  </outline>
</glyph>
<glyph name="germandbls" format="2">
  <advance width="895"/>
  <unicode hex="00DF"/>
  <outline>
    <contour>
      <point x="-3" y="-192" type="line" smooth="yes"/>
      <point x="-27" y="-281"/>
      <point x="-16" y="-311"/>
      <point x="25" y="-311" type="curve" smooth="yes"/>
      <point x="60" y="-311"/>
      <point x="91" y="-287"/>
      <point x="91" y="-258" type="curve" smooth="yes"/>
      <point x="91" y="-232"/>
      <point x="73" y="-219"/>
      <point x="73" y="-188" type="curve" smooth="yes"/>
      <point x="73" y="-160"/>
      <point x="77" y="-138"/>
      <point x="84" y="-112" type="curve" smooth="yes"/>
      <point x="330" y="867" type="line" smooth="yes"/>
      <point x="395" y="1123"/>
      <point x="526" y="1255"/>
      <point x="692" y="1255" type="curve" smooth="yes"/>
      <point x="809" y="1255"/>
      <point x="881" y="1140"/>
      <point x="849" y="1017" type="curve" smooth="yes"/>
      <point x="812" y="868"/>
      <point x="710" y="767"/>
      <point x="475" y="719" type="curve" smooth="yes"/>
      <point x="455" y="716"/>
      <point x="446" y="705"/>
      <point x="443" y="690" type="curve" smooth="yes"/>
      <point x="441" y="673"/>
      <point x="456" y="662"/>
      <point x="488" y="661" type="curve" smooth="yes"/>
      <point x="689" y="650"/>
      <point x="811" y="503"/>
      <point x="759" y="293" type="curve" smooth="yes"/>
      <point x="721" y="139"/>
      <point x="620" y="35"/>
      <point x="487" y="35" type="curve" smooth="yes"/>
      <point x="390" y="35"/>
      <point x="332" y="90"/>
      <point x="329" y="189" type="curve" smooth="yes"/>
      <point x="328" y="237" type="line" smooth="yes"/>
      <point x="328" y="255"/>
      <point x="325" y="264"/>
      <point x="311" y="264" type="curve" smooth="yes"/>
      <point x="300" y="264"/>
      <point x="288" y="255"/>
      <point x="276" y="203" type="curve" smooth="yes"/>
      <point x="243" y="63"/>
      <point x="310" y="-18"/>
      <point x="475" y="-18" type="curve" smooth="yes"/>
      <point x="647" y="-18"/>
      <point x="781" y="112"/>
      <point x="821" y="278" type="curve" smooth="yes"/>
      <point x="878" y="516"/>
      <point x="736" y="713"/>
      <point x="502" y="711" type="curve"/>
      <point x="498" y="692" type="line"/>
      <point x="714" y="714"/>
      <point x="868" y="830"/>
      <point x="911" y="999" type="curve" smooth="yes"/>
      <point x="952" y="1163"/>
      <point x="872" y="1308"/>
      <point x="708" y="1308" type="curve" smooth="yes"/>
      <point x="504" y="1308"/>
      <point x="334" y="1149"/>
      <point x="269" y="880" type="curve" smooth="yes"/>
      <point x="247" y="789" type="line"/>
      <point x="278" y="828" type="line"/>
      <point x="143" y="828" type="line" smooth="yes"/>
      <point x="129" y="828"/>
      <point x="118" y="819"/>
      <point x="116" y="808" type="curve" smooth="yes"/>
      <point x="113" y="793"/>
      <point x="130" y="788"/>
      <point x="159" y="776" type="curve" smooth="yes"/>
      <point x="190" y="765" type="line" smooth="yes"/>
      <point x="223" y="753"/>
      <point x="232" y="734"/>
      <point x="223" y="697" type="curve" smooth="yes"/>
    </contour>
  </outline>
</glyph>
<glyph name="eth" format="2">
  <advance width="754"/>
  <unicode hex="00F0"/>
  <outline>
    <contour>
      <point x="687" y="361" type="curve" smooth="yes"/>
      <point x="796" y="776"/>
      <point x="662" y="1213"/>
      <point x="392" y="1322" type="curve" smooth="yes"/>
      <point x="379" y="1327"/>
      <point x="371" y="1326"/>
      <point x="362" y="1315" type="curve" smooth="yes"/>
      <point x="356" y="1305"/>
      <point x="356" y="1295"/>
      <point x="368" y="1289" type="curve" smooth="yes"/>
      <point x="547" y="1187"/>
      <point x="668" y="886"/>
      <point x="670" y="555" type="curve"/>
      <point x="679" y="557" type="line"/>
      <point x="671" y="740"/>
      <point x="591" y="837"/>
      <point x="456" y="844" type="curve" smooth="yes"/>
      <point x="275" y="852"/>
      <point x="117" y="699"/>
      <point x="62" y="489" type="curve" smooth="yes"/>
      <point x="-19" y="185"/>
      <point x="83" y="-6"/>
      <point x="266" y="-15" type="curve" smooth="yes"/>
      <point x="458" y="-24"/>
      <point x="621" y="113"/>
    </contour>
    <contour>
      <point x="280" y="40" type="curve" smooth="yes"/>
      <point x="133" y="50"/>
      <point x="58" y="220"/>
      <point x="125" y="478" type="curve" smooth="yes"/>
      <point x="178" y="679"/>
      <point x="308" y="799"/>
      <point x="459" y="790" type="curve" smooth="yes"/>
      <point x="589" y="783"/>
      <point x="681" y="625"/>
      <point x="618" y="378" type="curve" smooth="yes"/>
      <point x="558" y="144"/>
      <point x="417" y="30"/>
    </contour>
    <contour>
      <point x="819" y="1214" type="line" smooth="yes"/>
      <point x="835" y="1222"/>
      <point x="844" y="1235"/>
      <point x="839" y="1249" type="curve" smooth="yes"/>
      <point x="838" y="1263"/>
      <point x="827" y="1268"/>
      <point x="810" y="1260" type="curve" smooth="yes"/>
      <point x="354" y="1047" type="line" smooth="yes"/>
      <point x="338" y="1040"/>
      <point x="330" y="1026"/>
      <point x="333" y="1010" type="curve" smooth="yes"/>
      <point x="335" y="997"/>
      <point x="345" y="993"/>
      <point x="362" y="1001" type="curve" smooth="yes"/>
    </contour>
  </outline>
</glyph>
<glyph name="thorn" format="2">
  <advance width="786"/>
  <unicode hex="00FE"/>
  <outline>
    <contour>
      <point x="370" y="1319" type="curve" smooth="yes"/>
      <point x="304" y="1319"/>
      <point x="242" y="1273"/>
      <point x="221" y="1239" type="curve" smooth="yes"/>
      <point x="209" y="1219"/>
      <point x="215" y="1204"/>
      <point x="224" y="1201" type="curve" smooth="yes"/>
      <point x="237" y="1193"/>
      <point x="253" y="1211"/>
      <point x="266" y="1221" type="curve" smooth="yes"/>
      <point x="294" y="1244"/>
      <point x="316" y="1256"/>
      <point x="337" y="1256" type="curve" smooth="yes"/>
      <point x="380" y="1256"/>
      <point x="391" y="1230"/>
      <point x="351" y="1079" type="curve" smooth="yes"/>
      <point x="-25" y="-294" type="line" smooth="yes"/>
      <point x="-40" y="-351"/>
      <point x="-63" y="-374"/>
      <point x="-124" y="-389" type="curve" smooth="yes"/>
      <point x="-133" y="-391"/>
      <point x="-142" y="-399"/>
      <point x="-142" y="-412" type="curve" smooth="yes"/>
      <point x="-142" y="-423"/>
      <point x="-130" y="-431"/>
      <point x="-117" y="-430" type="curve" smooth="yes"/>
      <point x="134" y="-420" type="line" smooth="yes"/>
      <point x="152" y="-420"/>
      <point x="164" y="-409"/>
      <point x="164" y="-397" type="curve" smooth="yes"/>
      <point x="164" y="-385"/>
      <point x="155" y="-375"/>
      <point x="132" y="-374" type="curve" smooth="yes"/>
      <point x="79" y="-365" type="line" smooth="yes"/>
      <point x="24" y="-356"/>
      <point x="39" y="-315"/>
      <point x="50" y="-274" type="curve" smooth="yes"/>
      <point x="420" y="1103" type="line" smooth="yes"/>
      <point x="465" y="1270"/>
      <point x="443" y="1319"/>
    </contour>
    <contour>
      <point x="139" y="633" type="curve" smooth="yes"/>
      <point x="249" y="751"/>
      <point x="348" y="800"/>
      <point x="466" y="788" type="curve" smooth="yes"/>
      <point x="597" y="775"/>
      <point x="684" y="651"/>
      <point x="652" y="423" type="curve" smooth="yes"/>
      <point x="614" y="154"/>
      <point x="466" y="25"/>
      <point x="316" y="40" type="curve" smooth="yes"/>
      <point x="234" y="49"/>
      <point x="182" y="88"/>
      <point x="153" y="162" type="curve"/>
      <point x="116" y="144" type="line"/>
      <point x="150" y="40"/>
      <point x="213" y="-6"/>
      <point x="307" y="-14" type="curve" smooth="yes"/>
      <point x="500" y="-31"/>
      <point x="686" y="132"/>
      <point x="724" y="413" type="curve" smooth="yes"/>
      <point x="759" y="682"/>
      <point x="661" y="828"/>
      <point x="479" y="842" type="curve" smooth="yes"/>
      <point x="343" y="852"/>
      <point x="227" y="804"/>
      <point x="97" y="662" type="curve" smooth="yes"/>
      <point x="82" y="647"/>
      <point x="79" y="625"/>
      <point x="97" y="616" type="curve" smooth="yes"/>
      <point x="111" y="610"/>
      <point x="124" y="617"/>
    </contour>
  </outline>
</glyph>
<glyph name="Aogonek" format="2">
  <advance width="1089"/>
  <unicode hex="0104"/>
  <outline>
    <contour>
      <point x="930" y="42" type="line"/>
      <point x="764" y="-37"/>
      <point x="638" y="-164"/>
      <point x="638" y="-288" type="curve" smooth="yes"/>
      <point x="638" y="-366"/>
      <point x="688" y="-417"/>
      <point x="770" y="-417" type="curve" smooth="yes"/>
      <point x="850" y="-417"/>
      <point x="917" y="-358"/>
      <point x="930" y="-308" type="curve" smooth="yes"/>
      <point x="934" y="-294"/>
      <point x="927" y="-289"/>
      <point x="920" y="-290" type="curve" smooth="yes"/>
      <point x="911" y="-290"/>
      <point x="905" y="-294"/>
      <point x="897" y="-306" type="curve" smooth="yes"/>
      <point x="867" y="-351"/>
      <point x="819" y="-369"/>
      <point x="778" y="-369" type="curve" smooth="yes"/>
      <point x="733" y="-369"/>
      <point x="701" y="-340"/>
      <point x="701" y="-282" type="curve" smooth="yes"/>
      <point x="701" y="-173"/>
      <point x="805" y="-68"/>
      <point x="941" y="4" type="curve"/>
    </contour>
    <component base="A" xOffset="-20"/>
  </outline>
</glyph>
<glyph name="aogonek" format="2">
  <advance width="815"/>
  <unicode hex="0105"/>
  <outline>
    <contour>
      <point x="656" y="37" type="line"/>
      <point x="486" y="-38"/>
      <point x="382" y="-158"/>
      <point x="382" y="-267" type="curve" smooth="yes"/>
      <point x="382" y="-339"/>
      <point x="427" y="-385"/>
      <point x="504" y="-385" type="curve" smooth="yes"/>
      <point x="579" y="-385"/>
      <point x="642" y="-331"/>
      <point x="657" y="-284" type="curve" smooth="yes"/>
      <point x="661" y="-270"/>
      <point x="654" y="-264"/>
      <point x="647" y="-264" type="curve" smooth="yes"/>
      <point x="639" y="-264"/>
      <point x="633" y="-268"/>
      <point x="624" y="-280" type="curve" smooth="yes"/>
      <point x="597" y="-320"/>
      <point x="554" y="-337"/>
      <point x="517" y="-337" type="curve" smooth="yes"/>
      <point x="477" y="-337"/>
      <point x="447" y="-310"/>
      <point x="447" y="-256" type="curve" smooth="yes"/>
      <point x="447" y="-167"/>
      <point x="529" y="-68"/>
      <point x="666" y="6" type="curve"/>
    </contour>
    <component base="a" xOffset="-15"/>
  </outline>
</glyph>
<glyph name="iogonek" format="2">
  <advance width="432"/>
  <unicode hex="012F"/>
  <outline>
    <contour>
      <point x="222" y="44" type="line"/>
      <point x="51" y="-30"/>
      <point x="-52" y="-155"/>
      <point x="-52" y="-267" type="curve" smooth="yes"/>
      <point x="-52" y="-339"/>
      <point x="-6" y="-385"/>
      <point x="69" y="-385" type="curve" smooth="yes"/>
      <point x="145" y="-385"/>
      <point x="208" y="-331"/>
      <point x="222" y="-284" type="curve" smooth="yes"/>
      <point x="227" y="-270"/>
      <point x="220" y="-264"/>
      <point x="213" y="-264" type="curve" smooth="yes"/>
      <point x="204" y="-264"/>
      <point x="199" y="-268"/>
      <point x="190" y="-280" type="curve" smooth="yes"/>
      <point x="163" y="-320"/>
      <point x="120" y="-337"/>
      <point x="83" y="-337" type="curve" smooth="yes"/>
      <point x="44" y="-337"/>
      <point x="14" y="-310"/>
      <point x="14" y="-256" type="curve" smooth="yes"/>
      <point x="14" y="-165"/>
      <point x="94" y="-61"/>
      <point x="232" y="13" type="curve"/>
    </contour>
    <component base="i" xOffset="-46"/>
  </outline>
</glyph>
<glyph name="Uogonek" format="2">
  <advance width="1246"/>
  <unicode hex="0172"/>
  <outline>
    <contour>
      <point x="665" y="41" type="line"/>
      <point x="498" y="-37"/>
      <point x="373" y="-164"/>
      <point x="373" y="-287" type="curve" smooth="yes"/>
      <point x="373" y="-366"/>
      <point x="423" y="-417"/>
      <point x="505" y="-417" type="curve" smooth="yes"/>
      <point x="585" y="-417"/>
      <point x="651" y="-358"/>
      <point x="665" y="-308" type="curve" smooth="yes"/>
      <point x="669" y="-294"/>
      <point x="662" y="-289"/>
      <point x="654" y="-290" type="curve" smooth="yes"/>
      <point x="646" y="-290"/>
      <point x="640" y="-294"/>
      <point x="631" y="-306" type="curve" smooth="yes"/>
      <point x="601" y="-351"/>
      <point x="554" y="-369"/>
      <point x="513" y="-369" type="curve" smooth="yes"/>
      <point x="468" y="-369"/>
      <point x="436" y="-340"/>
      <point x="436" y="-282" type="curve" smooth="yes"/>
      <point x="436" y="-174"/>
      <point x="540" y="-69"/>
      <point x="676" y="3" type="curve"/>
    </contour>
    <component base="U" xOffset="-20"/>
  </outline>
</glyph>
<glyph name="Oogonek" format="2">
  <advance width="1374"/>
  <unicode hex="01EA"/>
  <outline>
    <contour>
      <point x="884" y="1428" type="curve" smooth="yes"/>
      <point x="484" y="1428"/>
      <point x="130" y="1016"/>
      <point x="130" y="510" type="curve" smooth="yes"/>
      <point x="130" y="201"/>
      <point x="306" y="-30"/>
      <point x="574" y="-30" type="curve" smooth="yes"/>
      <point x="597" y="-30"/>
      <point x="619" y="-30"/>
      <point x="658" y="-28" type="curve"/>
      <point x="654" y="-14" type="line"/>
      <point x="529" y="-92"/>
      <point x="457" y="-192"/>
      <point x="457" y="-301" type="curve" smooth="yes"/>
      <point x="457" y="-371"/>
      <point x="505" y="-417"/>
      <point x="585" y="-417" type="curve" smooth="yes"/>
      <point x="668" y="-417"/>
      <point x="738" y="-358"/>
      <point x="752" y="-308" type="curve" smooth="yes"/>
      <point x="756" y="-294"/>
      <point x="748" y="-289"/>
      <point x="741" y="-290" type="curve" smooth="yes"/>
      <point x="732" y="-290"/>
      <point x="727" y="-294"/>
      <point x="717" y="-306" type="curve" smooth="yes"/>
      <point x="688" y="-351"/>
      <point x="640" y="-369"/>
      <point x="599" y="-369" type="curve" smooth="yes"/>
      <point x="553" y="-369"/>
      <point x="519" y="-343"/>
      <point x="519" y="-290" type="curve" smooth="yes"/>
      <point x="519" y="-176"/>
      <point x="625" y="-62"/>
      <point x="811" y="14" type="curve" smooth="yes"/>
      <point x="1122" y="140"/>
      <point x="1352" y="490"/>
      <point x="1352" y="879" type="curve" smooth="yes"/>
      <point x="1352" y="1211"/>
      <point x="1166" y="1428"/>
    </contour>
    <contour>
      <point x="199" y="518" type="curve" smooth="yes"/>
      <point x="198" y="1012"/>
      <point x="529" y="1374"/>
      <point x="875" y="1374" type="curve" smooth="yes"/>
      <point x="1111" y="1374"/>
      <point x="1285" y="1188"/>
      <point x="1285" y="873" type="curve" smooth="yes"/>
      <point x="1285" y="426"/>
      <point x="974" y="23"/>
      <point x="598" y="23" type="curve" smooth="yes"/>
      <point x="391" y="23"/>
      <point x="199" y="190"/>
    </contour>
  </outline>
</glyph>
<glyph name="oogonek" format="2">
  <advance width="788"/>
  <unicode hex="01EB"/>
  <outline>
    <contour>
      <point x="481" y="842" type="curve" smooth="yes"/>
      <point x="245" y="842"/>
      <point x="55" y="572"/>
      <point x="55" y="294" type="curve" smooth="yes"/>
      <point x="55" y="109"/>
      <point x="152" y="-16"/>
      <point x="305" y="-16" type="curve" smooth="yes"/>
      <point x="320" y="-16"/>
      <point x="334" y="-15"/>
      <point x="367" y="-12" type="curve"/>
      <point x="362" y="2" type="line"/>
      <point x="245" y="-86"/>
      <point x="191" y="-178"/>
      <point x="191" y="-262" type="curve" smooth="yes"/>
      <point x="191" y="-337"/>
      <point x="236" y="-385"/>
      <point x="311" y="-385" type="curve" smooth="yes"/>
      <point x="387" y="-385"/>
      <point x="450" y="-331"/>
      <point x="464" y="-284" type="curve" smooth="yes"/>
      <point x="470" y="-270"/>
      <point x="463" y="-264"/>
      <point x="455" y="-264" type="curve" smooth="yes"/>
      <point x="447" y="-264"/>
      <point x="441" y="-268"/>
      <point x="432" y="-280" type="curve" smooth="yes"/>
      <point x="405" y="-320"/>
      <point x="362" y="-337"/>
      <point x="325" y="-337" type="curve" smooth="yes"/>
      <point x="285" y="-337"/>
      <point x="256" y="-308"/>
      <point x="256" y="-251" type="curve" smooth="yes"/>
      <point x="256" y="-160"/>
      <point x="334" y="-53"/>
      <point x="459" y="22" type="curve" smooth="yes"/>
      <point x="617" y="117"/>
      <point x="732" y="302"/>
      <point x="732" y="534" type="curve" smooth="yes"/>
      <point x="732" y="717"/>
      <point x="637" y="842"/>
    </contour>
    <contour>
      <point x="328" y="38" type="curve" smooth="yes"/>
      <point x="209" y="38"/>
      <point x="124" y="113"/>
      <point x="124" y="295" type="curve" smooth="yes"/>
      <point x="124" y="546"/>
      <point x="277" y="788"/>
      <point x="474" y="788" type="curve" smooth="yes"/>
      <point x="577" y="788"/>
      <point x="662" y="707"/>
      <point x="662" y="530" type="curve" smooth="yes"/>
      <point x="662" y="250"/>
      <point x="487" y="38"/>
    </contour>
  </outline>
</glyph>
<glyph name="dotlessj" format="2">
  <advance width="449"/>
  <unicode hex="0237"/>
  <anchor x="285" y="980" name="center"/>
  <outline>
    <contour>
      <point x="341" y="568" type="line" smooth="yes"/>
      <point x="394" y="753"/>
      <point x="394" y="842"/>
      <point x="297" y="842" type="curve" smooth="yes"/>
      <point x="220" y="842"/>
      <point x="145" y="776"/>
      <point x="144" y="743" type="curve" smooth="yes"/>
      <point x="143" y="731"/>
      <point x="150" y="721"/>
      <point x="161" y="721" type="curve" smooth="yes"/>
      <point x="172" y="721"/>
      <point x="179" y="725"/>
      <point x="189" y="736" type="curve" smooth="yes"/>
      <point x="212" y="763"/>
      <point x="242" y="778"/>
      <point x="266" y="778" type="curve" smooth="yes"/>
      <point x="315" y="778"/>
      <point x="315" y="696"/>
      <point x="276" y="565" type="curve" smooth="yes"/>
      <point x="80" y="-105" type="line" smooth="yes"/>
      <point x="69" y="-143"/>
      <point x="68" y="-164"/>
      <point x="65" y="-198" type="curve" smooth="yes"/>
      <point x="53" y="-318"/>
      <point x="-10" y="-386"/>
      <point x="-70" y="-386" type="curve" smooth="yes"/>
      <point x="-115" y="-386"/>
      <point x="-131" y="-363"/>
      <point x="-168" y="-363" type="curve" smooth="yes"/>
      <point x="-205" y="-363"/>
      <point x="-222" y="-386"/>
      <point x="-222" y="-411" type="curve" smooth="yes"/>
      <point x="-222" y="-441"/>
      <point x="-193" y="-466"/>
      <point x="-136" y="-466" type="curve" smooth="yes"/>
      <point x="-14" y="-466"/>
      <point x="68" y="-393"/>
      <point x="117" y="-224" type="curve" smooth="yes"/>
    </contour>
  </outline>
</glyph>
<glyph name="Germandbls" format="2">
  <advance width="1189"/>
  <unicode hex="1E9E"/>
  <outline>
    <contour>
      <point x="1311" y="1400" type="curve" smooth="yes"/>
      <point x="366" y="1400" type="line" smooth="yes"/>
      <point x="346" y="1400"/>
      <point x="332" y="1393"/>
      <point x="329" y="1380" type="curve" smooth="yes"/>
      <point x="326" y="1369"/>
      <point x="332" y="1361"/>
      <point x="353" y="1355" type="curve" smooth="yes"/>
      <point x="412" y="1340" type="line" smooth="yes"/>
      <point x="457" y="1330"/>
      <point x="470" y="1306"/>
      <point x="455" y="1245" type="curve" smooth="yes"/>
      <point x="184" y="145" type="line" smooth="yes"/>
      <point x="173" y="100"/>
      <point x="144" y="68"/>
      <point x="104" y="61" type="curve" smooth="yes"/>
      <point x="37" y="46" type="line" smooth="yes"/>
      <point x="4" y="40"/>
      <point x="-6" y="32"/>
      <point x="-10" y="18" type="curve" smooth="yes"/>
      <point x="-13" y="6"/>
      <point x="-3" y="0"/>
      <point x="14" y="0" type="curve" smooth="yes"/>
      <point x="164" y="0" type="line" smooth="yes"/>
      <point x="193" y="0"/>
      <point x="219" y="21"/>
      <point x="227" y="53" type="curve" smooth="yes"/>
      <point x="531" y="1284" type="line" smooth="yes"/>
      <point x="542" y="1322"/>
      <point x="563" y="1343"/>
      <point x="595" y="1343" type="curve" smooth="yes"/>
      <point x="1185" y="1343" type="line" smooth="yes"/>
      <point x="1201" y="1343"/>
      <point x="1209" y="1337"/>
      <point x="1205" y="1323" type="curve" smooth="yes"/>
      <point x="1202" y="1313"/>
      <point x="1197" y="1301"/>
      <point x="1179" y="1286" type="curve" smooth="yes"/>
      <point x="649" y="792" type="line" smooth="yes"/>
      <point x="636" y="780"/>
      <point x="630" y="773"/>
      <point x="628" y="760" type="curve" smooth="yes"/>
      <point x="624" y="746"/>
      <point x="632" y="736"/>
      <point x="654" y="736" type="curve" smooth="yes"/>
      <point x="744" y="736" type="line" smooth="yes"/>
      <point x="1000" y="736"/>
      <point x="1118" y="593"/>
      <point x="1059" y="349" type="curve" smooth="yes"/>
      <point x="1004" y="127"/>
      <point x="859" y="31"/>
      <point x="690" y="31" type="curve" smooth="yes"/>
      <point x="556" y="31"/>
      <point x="475" y="77"/>
      <point x="477" y="203" type="curve" smooth="yes"/>
      <point x="478" y="266" type="line" smooth="yes"/>
      <point x="478" y="288"/>
      <point x="474" y="295"/>
      <point x="455" y="295" type="curve" smooth="yes"/>
      <point x="440" y="295"/>
      <point x="432" y="285"/>
      <point x="426" y="265" type="curve" smooth="yes"/>
      <point x="365" y="18" type="line" smooth="yes"/>
      <point x="359" y="-3"/>
      <point x="368" y="-20"/>
      <point x="387" y="-20" type="curve" smooth="yes"/>
      <point x="411" y="-20"/>
      <point x="439" y="38"/>
      <point x="457" y="38" type="curve" smooth="yes"/>
      <point x="479" y="38"/>
      <point x="531" y="-20"/>
      <point x="680" y="-20" type="curve" smooth="yes"/>
      <point x="894" y="-20"/>
      <point x="1072" y="113"/>
      <point x="1127" y="330" type="curve" smooth="yes"/>
      <point x="1195" y="603"/>
      <point x="1068" y="787"/>
      <point x="786" y="787" type="curve" smooth="yes"/>
      <point x="757" y="787"/>
      <point x="717" y="788"/>
      <point x="694" y="788" type="curve"/>
      <point x="692" y="758" type="line"/>
      <point x="1294" y="1318" type="line" smooth="yes"/>
      <point x="1321" y="1341"/>
      <point x="1330" y="1353"/>
      <point x="1335" y="1370" type="curve" smooth="yes"/>
      <point x="1341" y="1389"/>
      <point x="1330" y="1400"/>
    </contour>
  </outline>
</glyph>
<glyph name="perthousand" format="2">
  <advance width="1626"/>
  <unicode hex="2030"/>
  <outline>
    <contour>
      <point x="545" y="1420" type="curve" smooth="yes"/>
      <point x="392" y="1420"/>
      <point x="277" y="1295"/>
      <point x="228" y="1102" type="curve" smooth="yes"/>
      <point x="173" y="884"/>
      <point x="226" y="765"/>
      <point x="369" y="765" type="curve" smooth="yes"/>
      <point x="496" y="765"/>
      <point x="622" y="883"/>
      <point x="678" y="1108" type="curve" smooth="yes"/>
      <point x="726" y="1302"/>
      <point x="670" y="1420"/>
    </contour>
    <contour>
      <point x="602" y="1088" type="curve" smooth="yes"/>
      <point x="551" y="883"/>
      <point x="466" y="820"/>
      <point x="386" y="820" type="curve" smooth="yes"/>
      <point x="289" y="820"/>
      <point x="248" y="897"/>
      <point x="301" y="1112" type="curve" smooth="yes"/>
      <point x="344" y="1282"/>
      <point x="419" y="1367"/>
      <point x="518" y="1367" type="curve" smooth="yes"/>
      <point x="612" y="1367"/>
      <point x="652" y="1291"/>
    </contour>
    <contour>
      <point x="882" y="635" type="curve" smooth="yes"/>
      <point x="730" y="635"/>
      <point x="614" y="510"/>
      <point x="566" y="317" type="curve" smooth="yes"/>
      <point x="511" y="98"/>
      <point x="564" y="-20"/>
      <point x="707" y="-20" type="curve" smooth="yes"/>
      <point x="834" y="-20"/>
      <point x="960" y="98"/>
      <point x="1015" y="322" type="curve" smooth="yes"/>
      <point x="1063" y="517"/>
      <point x="1008" y="635"/>
    </contour>
    <contour>
      <point x="940" y="302" type="curve" smooth="yes"/>
      <point x="889" y="98"/>
      <point x="804" y="34"/>
      <point x="724" y="34" type="curve" smooth="yes"/>
      <point x="626" y="34"/>
      <point x="585" y="112"/>
      <point x="638" y="327" type="curve" smooth="yes"/>
      <point x="681" y="497"/>
      <point x="757" y="582"/>
      <point x="855" y="582" type="curve" smooth="yes"/>
      <point x="951" y="582"/>
      <point x="990" y="506"/>
    </contour>
    <contour>
      <point x="1424" y="635" type="curve" smooth="yes"/>
      <point x="1272" y="635"/>
      <point x="1156" y="510"/>
      <point x="1108" y="317" type="curve" smooth="yes"/>
      <point x="1053" y="98"/>
      <point x="1106" y="-20"/>
      <point x="1249" y="-20" type="curve" smooth="yes"/>
      <point x="1377" y="-20"/>
      <point x="1502" y="98"/>
      <point x="1558" y="322" type="curve" smooth="yes"/>
      <point x="1607" y="517"/>
      <point x="1550" y="635"/>
    </contour>
    <contour>
      <point x="1482" y="302" type="curve" smooth="yes"/>
      <point x="1431" y="98"/>
      <point x="1346" y="34"/>
      <point x="1266" y="34" type="curve" smooth="yes"/>
      <point x="1169" y="34"/>
      <point x="1128" y="112"/>
      <point x="1182" y="327" type="curve" smooth="yes"/>
      <point x="1224" y="497"/>
      <point x="1299" y="582"/>
      <point x="1398" y="582" type="curve" smooth="yes"/>
      <point x="1493" y="582"/>
      <point x="1533" y="506"/>
    </contour>
    <component base="fraction" xOffset="81"/>
  </outline>
</glyph>
<glyph name="zero.superior" format="2">
  <advance width="651"/>
  <unicode hex="2070"/>
  <outline>
    <contour>
      <point x="578" y="1409" type="curve" smooth="yes"/>
      <point x="409" y="1409"/>
      <point x="280" y="1276"/>
      <point x="235" y="1090" type="curve" smooth="yes"/>
      <point x="173" y="845"/>
      <point x="231" y="716"/>
      <point x="393" y="716" type="curve" smooth="yes"/>
      <point x="531" y="716"/>
      <point x="672" y="831"/>
      <point x="725" y="1042" type="curve" smooth="yes"/>
      <point x="784" y="1276"/>
      <point x="718" y="1409"/>
    </contour>
    <contour>
      <point x="659" y="1057" type="curve" smooth="yes"/>
      <point x="604" y="839"/>
      <point x="505" y="770"/>
      <point x="410" y="770" type="curve" smooth="yes"/>
      <point x="294" y="770"/>
      <point x="245" y="852"/>
      <point x="302" y="1081" type="curve" smooth="yes"/>
      <point x="346" y="1264"/>
      <point x="435" y="1356"/>
      <point x="552" y="1356" type="curve" smooth="yes"/>
      <point x="664" y="1356"/>
      <point x="713" y="1275"/>
    </contour>
  </outline>
</glyph>
<glyph name="Euro" format="2">
  <advance width="1192"/>
  <outline>
    <contour>
      <point x="1114" y="311" type="curve" smooth="yes"/>
      <point x="1117" y="323"/>
      <point x="1113" y="328"/>
      <point x="1103" y="328" type="curve" smooth="yes"/>
      <point x="1072" y="327"/>
      <point x="1062" y="265"/>
      <point x="989" y="194" type="curve" smooth="yes"/>
      <point x="876" y="81"/>
      <point x="765" y="32"/>
      <point x="638" y="32" type="curve" smooth="yes"/>
      <point x="385" y="32"/>
      <point x="220" y="278"/>
      <point x="330" y="717" type="curve" smooth="yes"/>
      <point x="423" y="1091"/>
      <point x="709" y="1372"/>
      <point x="964" y="1372" type="curve" smooth="yes"/>
      <point x="1160" y="1372"/>
      <point x="1232" y="1292"/>
      <point x="1214" y="1086" type="curve" smooth="yes"/>
      <point x="1213" y="1074"/>
      <point x="1223" y="1065"/>
      <point x="1235" y="1065" type="curve" smooth="yes"/>
      <point x="1251" y="1065"/>
      <point x="1253" y="1082"/>
      <point x="1262" y="1101" type="curve" smooth="yes"/>
      <point x="1322" y="1227" type="line" smooth="yes"/>
      <point x="1337" y="1263"/>
      <point x="1332" y="1277"/>
      <point x="1306" y="1305" type="curve" smooth="yes"/>
      <point x="1265" y="1351"/>
      <point x="1158" y="1428"/>
      <point x="1000" y="1428" type="curve" smooth="yes"/>
      <point x="673" y="1428"/>
      <point x="360" y="1116"/>
      <point x="252" y="691" type="curve" smooth="yes"/>
      <point x="147" y="277"/>
      <point x="295" y="-34"/>
      <point x="611" y="-34" type="curve" smooth="yes"/>
      <point x="887" y="-34"/>
      <point x="1085" y="205"/>
    </contour>
    <contour>
      <point x="120" y="819" type="curve" smooth="yes"/>
      <point x="116" y="802"/>
      <point x="123" y="791"/>
      <point x="142" y="791" type="curve" smooth="yes"/>
      <point x="1085" y="791" type="line" smooth="yes"/>
      <point x="1105" y="791"/>
      <point x="1121" y="802"/>
      <point x="1126" y="820" type="curve" smooth="yes"/>
      <point x="1129" y="835"/>
      <point x="1118" y="847"/>
      <point x="1098" y="847" type="curve" smooth="yes"/>
      <point x="158" y="847" type="line" smooth="yes"/>
      <point x="140" y="847"/>
      <point x="124" y="834"/>
    </contour>
    <contour>
      <point x="64" y="593" type="curve" smooth="yes"/>
      <point x="59" y="575"/>
      <point x="66" y="565"/>
      <point x="85" y="565" type="curve" smooth="yes"/>
      <point x="982" y="565" type="line" smooth="yes"/>
      <point x="1002" y="565"/>
      <point x="1019" y="575"/>
      <point x="1023" y="594" type="curve" smooth="yes"/>
      <point x="1027" y="609"/>
      <point x="1016" y="620"/>
      <point x="996" y="620" type="curve" smooth="yes"/>
      <point x="101" y="620" type="line" smooth="yes"/>
      <point x="84" y="620"/>
      <point x="67" y="608"/>
    </contour>
  </outline>
</glyph>
<glyph name="brevehook.cap" format="2">
  <advance width="436"/>
  <anchor x="240" y="954" name="center"/>
  <outline>
    <contour>
      <point x="236" y="1125" type="curve" smooth="yes"/>
      <point x="153" y="1125"/>
      <point x="112" y="1175"/>
      <point x="108" y="1288" type="curve" smooth="yes"/>
      <point x="107" y="1299"/>
      <point x="105" y="1303"/>
      <point x="98" y="1303" type="curve" smooth="yes"/>
      <point x="93" y="1303"/>
      <point x="85" y="1298"/>
      <point x="82" y="1288" type="curve" smooth="yes"/>
      <point x="53" y="1152"/>
      <point x="106" y="1056"/>
      <point x="218" y="1056" type="curve" smooth="yes"/>
      <point x="330" y="1056"/>
      <point x="429" y="1152"/>
      <point x="465" y="1288" type="curve" smooth="yes"/>
      <point x="468" y="1298"/>
      <point x="463" y="1303"/>
      <point x="457" y="1303" type="curve" smooth="yes"/>
      <point x="452" y="1303"/>
      <point x="446" y="1299"/>
      <point x="440" y="1288" type="curve" smooth="yes"/>
      <point x="383" y="1175"/>
      <point x="318" y="1125"/>
    </contour>
    <contour>
      <point x="239" y="1311" type="curve" smooth="yes"/>
      <point x="239" y="1321"/>
      <point x="250" y="1333"/>
      <point x="262" y="1334" type="curve" smooth="yes"/>
      <point x="345" y="1344"/>
      <point x="391" y="1394"/>
      <point x="407" y="1457" type="curve" smooth="yes"/>
      <point x="421" y="1516"/>
      <point x="388" y="1543"/>
      <point x="342" y="1543" type="curve" smooth="yes"/>
      <point x="282" y="1543"/>
      <point x="251" y="1510"/>
      <point x="239" y="1463" type="curve" smooth="yes"/>
      <point x="234" y="1438" type="line" smooth="yes"/>
      <point x="226" y="1409"/>
      <point x="207" y="1393"/>
      <point x="184" y="1393" type="curve" smooth="yes"/>
      <point x="160" y="1393"/>
      <point x="151" y="1413"/>
      <point x="158" y="1438" type="curve" smooth="yes"/>
      <point x="177" y="1518"/>
      <point x="266" y="1589"/>
      <point x="353" y="1589" type="curve" smooth="yes"/>
      <point x="435" y="1589"/>
      <point x="488" y="1540"/>
      <point x="468" y="1457" type="curve" smooth="yes"/>
      <point x="453" y="1398"/>
      <point x="398" y="1317"/>
      <point x="285" y="1297" type="curve" smooth="yes"/>
      <point x="242" y="1290"/>
      <point x="239" y="1299"/>
    </contour>
  </outline>
</glyph>
<glyph name="caron.cap" format="2">
  <advance width="473"/>
  <anchor x="273" y="1062" name="center"/>
  <outline>
    <contour>
      <point x="260" y="1154" type="line"/>
      <point x="259" y="1154" type="line"/>
      <point x="478" y="1307" type="line" smooth="yes"/>
      <point x="489" y="1314"/>
      <point x="496" y="1317"/>
      <point x="503" y="1312" type="curve" smooth="yes"/>
      <point x="508" y="1307"/>
      <point x="506" y="1297"/>
      <point x="496" y="1287" type="curve" smooth="yes"/>
      <point x="274" y="1080" type="line" smooth="yes"/>
      <point x="260" y="1066"/>
      <point x="250" y="1060"/>
      <point x="239" y="1060" type="curve" smooth="yes"/>
      <point x="226" y="1060"/>
      <point x="218" y="1066"/>
      <point x="210" y="1080" type="curve" smooth="yes"/>
      <point x="88" y="1287" type="line" smooth="yes"/>
      <point x="82" y="1297"/>
      <point x="86" y="1307"/>
      <point x="93" y="1312" type="curve" smooth="yes"/>
      <point x="102" y="1317"/>
      <point x="108" y="1314"/>
      <point x="116" y="1307" type="curve" smooth="yes"/>
    </contour>
  </outline>
</glyph>
<glyph name="cedi" format="2">
  <advance width="1090"/>
  <outline>
    <contour>
      <point x="1018" y="339" type="curve" smooth="yes"/>
      <point x="1021" y="349"/>
      <point x="1015" y="360"/>
      <point x="1004" y="359" type="curve" smooth="yes"/>
      <point x="969" y="358"/>
      <point x="959" y="280"/>
      <point x="855" y="186" type="curve" smooth="yes"/>
      <point x="780" y="120"/>
      <point x="673" y="67"/>
      <point x="545" y="67" type="curve" smooth="yes"/>
      <point x="283" y="67"/>
      <point x="127" y="319"/>
      <point x="228" y="728" type="curve" smooth="yes"/>
      <point x="319" y="1083"/>
      <point x="600" y="1346"/>
      <point x="854" y="1346" type="curve" smooth="yes"/>
      <point x="1009" y="1346"/>
      <point x="1169" y="1254"/>
      <point x="1129" y="1051" type="curve" smooth="yes"/>
      <point x="1124" y="1024"/>
      <point x="1130" y="1015"/>
      <point x="1148" y="1015" type="curve" smooth="yes"/>
      <point x="1166" y="1015"/>
      <point x="1176" y="1034"/>
      <point x="1180" y="1053" type="curve" smooth="yes"/>
      <point x="1253" y="1350" type="line" smooth="yes"/>
      <point x="1259" y="1370"/>
      <point x="1244" y="1377"/>
      <point x="1232" y="1377" type="curve" smooth="yes"/>
      <point x="1196" y="1377"/>
      <point x="1182" y="1294"/>
      <point x="1161" y="1294" type="curve" smooth="yes"/>
      <point x="1136" y="1294"/>
      <point x="1075" y="1398"/>
      <point x="871" y="1398" type="curve" smooth="yes"/>
      <point x="555" y="1398"/>
      <point x="254" y="1103"/>
      <point x="158" y="729" type="curve" smooth="yes"/>
      <point x="53" y="316"/>
      <point x="196" y="7"/>
      <point x="527" y="7" type="curve" smooth="yes"/>
      <point x="797" y="7"/>
      <point x="987" y="230"/>
    </contour>
    <contour>
      <point x="710" y="707" type="curve" smooth="yes"/>
      <point x="810" y="1107"/>
      <point x="881" y="1322"/>
      <point x="916" y="1460" type="curve" smooth="yes"/>
      <point x="928" y="1507"/>
      <point x="914" y="1529"/>
      <point x="890" y="1529" type="curve" smooth="yes"/>
      <point x="861" y="1529"/>
      <point x="835" y="1504"/>
      <point x="824" y="1460" type="curve" smooth="yes"/>
      <point x="788" y="1319"/>
      <point x="752" y="1105"/>
      <point x="653" y="707" type="curve" smooth="yes"/>
      <point x="554" y="304"/>
      <point x="480" y="87"/>
      <point x="446" y="-50" type="curve" smooth="yes"/>
      <point x="434" y="-100"/>
      <point x="449" y="-123"/>
      <point x="475" y="-123" type="curve" smooth="yes"/>
      <point x="503" y="-123"/>
      <point x="528" y="-99"/>
      <point x="539" y="-54" type="curve" smooth="yes"/>
      <point x="574" y="88"/>
      <point x="611" y="305"/>
    </contour>
  </outline>
</glyph>
<glyph name="circumflexcmb" format="2">
  <advance width="448"/>
  <anchor x="285" y="1062" name="center"/>
  <outline>
    <contour>
      <point x="264" y="1126" type="line"/>
      <point x="61" y="984" type="line" smooth="yes"/>
      <point x="49" y="977"/>
      <point x="40" y="974"/>
      <point x="33" y="980" type="curve" smooth="yes"/>
      <point x="28" y="984"/>
      <point x="30" y="995"/>
      <point x="41" y="1006" type="curve" smooth="yes"/>
      <point x="243" y="1195" type="line" smooth="yes"/>
      <point x="259" y="1209"/>
      <point x="270" y="1216"/>
      <point x="283" y="1216" type="curve" smooth="yes"/>
      <point x="296" y="1216"/>
      <point x="302" y="1209"/>
      <point x="311" y="1195" type="curve" smooth="yes"/>
      <point x="421" y="1006" type="line" smooth="yes"/>
      <point x="427" y="995"/>
      <point x="423" y="984"/>
      <point x="415" y="980" type="curve" smooth="yes"/>
      <point x="406" y="974"/>
      <point x="399" y="977"/>
      <point x="391" y="984" type="curve" smooth="yes"/>
      <point x="256" y="1126" type="line"/>
    </contour>
  </outline>
</glyph>
<glyph name="circumflexhook" format="2">
  <advance width="640"/>
  <anchor x="285" y="1062" name="center"/>
  <outline>
    <contour>
      <point x="264" y="1126" type="line"/>
      <point x="61" y="984" type="line" smooth="yes"/>
      <point x="49" y="977"/>
      <point x="40" y="974"/>
      <point x="33" y="980" type="curve" smooth="yes"/>
      <point x="28" y="984"/>
      <point x="30" y="995"/>
      <point x="41" y="1006" type="curve" smooth="yes"/>
      <point x="242" y="1195" type="line" smooth="yes"/>
      <point x="259" y="1209"/>
      <point x="269" y="1216"/>
      <point x="283" y="1216" type="curve" smooth="yes"/>
      <point x="296" y="1216"/>
      <point x="302" y="1209"/>
      <point x="311" y="1195" type="curve" smooth="yes"/>
      <point x="421" y="1006" type="line" smooth="yes"/>
      <point x="427" y="995"/>
      <point x="423" y="984"/>
      <point x="416" y="980" type="curve" smooth="yes"/>
      <point x="406" y="974"/>
      <point x="399" y="977"/>
      <point x="391" y="984" type="curve" smooth="yes"/>
      <point x="256" y="1126" type="line"/>
    </contour>
    <contour>
      <point x="474" y="1137" type="curve" smooth="yes"/>
      <point x="475" y="1147"/>
      <point x="484" y="1157"/>
      <point x="497" y="1160" type="curve" smooth="yes"/>
      <point x="574" y="1179"/>
      <point x="615" y="1218"/>
      <point x="629" y="1280" type="curve" smooth="yes"/>
      <point x="643" y="1338"/>
      <point x="615" y="1365"/>
      <point x="573" y="1365" type="curve" smooth="yes"/>
      <point x="520" y="1365"/>
      <point x="492" y="1335"/>
      <point x="481" y="1293" type="curve" smooth="yes"/>
      <point x="476" y="1271" type="line" smooth="yes"/>
      <point x="470" y="1243"/>
      <point x="450" y="1228"/>
      <point x="429" y="1228" type="curve" smooth="yes"/>
      <point x="406" y="1228"/>
      <point x="397" y="1247"/>
      <point x="403" y="1271" type="curve" smooth="yes"/>
      <point x="421" y="1344"/>
      <point x="503" y="1409"/>
      <point x="584" y="1409" type="curve" smooth="yes"/>
      <point x="662" y="1409"/>
      <point x="710" y="1361"/>
      <point x="691" y="1280" type="curve" smooth="yes"/>
      <point x="676" y="1220"/>
      <point x="623" y="1150"/>
      <point x="516" y="1123" type="curve" smooth="yes"/>
      <point x="477" y="1113"/>
      <point x="473" y="1125"/>
    </contour>
  </outline>
</glyph>
<glyph name="commaaccentbelowcmb" format="2">
  <advance width="192"/>
  <outline>
    <contour>
      <point x="125" y="-305" type="curve" smooth="yes"/>
      <point x="139" y="-305" type="line" smooth="yes"/>
      <point x="155" y="-305"/>
      <point x="158" y="-312"/>
      <point x="154" y="-331" type="curve" smooth="yes"/>
      <point x="143" y="-377"/>
      <point x="104" y="-422"/>
      <point x="53" y="-439" type="curve" smooth="yes"/>
      <point x="39" y="-443"/>
      <point x="30" y="-454"/>
      <point x="32" y="-464" type="curve" smooth="yes"/>
      <point x="33" y="-476"/>
      <point x="42" y="-477"/>
      <point x="58" y="-473" type="curve" smooth="yes"/>
      <point x="127" y="-453"/>
      <point x="186" y="-389"/>
      <point x="208" y="-298" type="curve" smooth="yes"/>
      <point x="227" y="-215"/>
      <point x="202" y="-187"/>
      <point x="161" y="-187" type="curve" smooth="yes"/>
      <point x="125" y="-187"/>
      <point x="92" y="-213"/>
      <point x="84" y="-247" type="curve" smooth="yes"/>
      <point x="75" y="-280"/>
      <point x="90" y="-305"/>
    </contour>
  </outline>
</glyph>
<glyph name="currency" format="2">
  <advance width="999"/>
  <outline>
    <contour>
      <point x="476" y="350" type="curve" smooth="yes"/>
      <point x="312" y="350"/>
      <point x="227" y="478"/>
      <point x="273" y="659" type="curve" smooth="yes"/>
      <point x="318" y="839"/>
      <point x="467" y="963"/>
      <point x="630" y="963" type="curve" smooth="yes"/>
      <point x="795" y="963"/>
      <point x="882" y="840"/>
      <point x="837" y="659" type="curve" smooth="yes"/>
      <point x="790" y="477"/>
      <point x="641" y="350"/>
    </contour>
    <contour>
      <point x="494" y="411" type="curve" smooth="yes"/>
      <point x="623" y="411"/>
      <point x="736" y="515"/>
      <point x="772" y="659" type="curve" smooth="yes"/>
      <point x="808" y="802"/>
      <point x="744" y="905"/>
      <point x="616" y="905" type="curve" smooth="yes"/>
      <point x="489" y="905"/>
      <point x="372" y="803"/>
      <point x="337" y="659" type="curve" smooth="yes"/>
      <point x="301" y="515"/>
      <point x="366" y="411"/>
    </contour>
    <contour>
      <point x="818" y="250" type="curve" smooth="yes"/>
      <point x="798" y="235"/>
      <point x="777" y="241"/>
      <point x="765" y="258" type="curve" smooth="yes"/>
      <point x="643" y="437" type="line"/>
      <point x="705" y="489" type="line"/>
      <point x="828" y="311" type="line" smooth="yes"/>
      <point x="840" y="293"/>
      <point x="838" y="267"/>
    </contour>
    <contour>
      <point x="285" y="1064" type="curve" smooth="yes"/>
      <point x="304" y="1079"/>
      <point x="327" y="1073"/>
      <point x="338" y="1056" type="curve" smooth="yes"/>
      <point x="461" y="877" type="line"/>
      <point x="398" y="825" type="line"/>
      <point x="277" y="1004" type="line" smooth="yes"/>
      <point x="264" y="1021"/>
      <point x="265" y="1047"/>
    </contour>
    <contour>
      <point x="80" y="252" type="curve" smooth="yes"/>
      <point x="68" y="268"/>
      <point x="81" y="293"/>
      <point x="101" y="309" type="curve" smooth="yes"/>
      <point x="314" y="488" type="line"/>
      <point x="351" y="438" type="line"/>
      <point x="140" y="260" type="line" smooth="yes"/>
      <point x="118" y="242"/>
      <point x="92" y="236"/>
    </contour>
    <contour>
      <point x="1024" y="1063" type="curve" smooth="yes"/>
      <point x="1035" y="1047"/>
      <point x="1023" y="1022"/>
      <point x="1001" y="1006" type="curve" smooth="yes"/>
      <point x="789" y="826" type="line"/>
      <point x="754" y="877" type="line"/>
      <point x="964" y="1055" type="line" smooth="yes"/>
      <point x="986" y="1073"/>
      <point x="1011" y="1079"/>
    </contour>
  </outline>
</glyph>
<glyph name="dotbelowcmb" format="2">
  <advance width="180"/>
  <outline>
    <contour>
      <point x="90" y="-331" type="curve" smooth="yes"/>
      <point x="127" y="-331"/>
      <point x="161" y="-298"/>
      <point x="170" y="-259" type="curve" smooth="yes"/>
      <point x="181" y="-219"/>
      <point x="163" y="-187"/>
      <point x="126" y="-187" type="curve" smooth="yes"/>
      <point x="89" y="-187"/>
      <point x="56" y="-219"/>
      <point x="45" y="-259" type="curve" smooth="yes"/>
      <point x="35" y="-298"/>
      <point x="53" y="-331"/>
    </contour>
  </outline>
</glyph>
<glyph name="grave.cap" format="2">
  <advance width="327"/>
  <anchor x="251" y="991" name="center"/>
  <outline>
    <contour>
      <point x="186" y="1241" type="line" smooth="yes"/>
      <point x="158" y="1279"/>
      <point x="141" y="1302"/>
      <point x="110" y="1291" type="curve" smooth="yes"/>
      <point x="87" y="1281"/>
      <point x="71" y="1260"/>
      <point x="74" y="1239" type="curve" smooth="yes"/>
      <point x="76" y="1216"/>
      <point x="97" y="1200"/>
      <point x="121" y="1181" type="curve" smooth="yes"/>
      <point x="279" y="1055" type="line" smooth="yes"/>
      <point x="283" y="1051"/>
      <point x="292" y="1051"/>
      <point x="299" y="1057" type="curve" smooth="yes"/>
      <point x="307" y="1064"/>
      <point x="304" y="1074"/>
      <point x="299" y="1081" type="curve" smooth="yes"/>
    </contour>
  </outline>
</glyph>
<glyph name="guarani" format="2">
  <advance width="1223"/>
  <outline>
    <contour>
      <point x="958" y="64" type="curve" smooth="yes"/>
      <point x="1059" y="469" type="line" smooth="yes"/>
      <point x="1073" y="522"/>
      <point x="1107" y="548"/>
      <point x="1159" y="558" type="curve" smooth="yes"/>
      <point x="1210" y="568" type="line" smooth="yes"/>
      <point x="1233" y="572"/>
      <point x="1248" y="578"/>
      <point x="1251" y="592" type="curve" smooth="yes"/>
      <point x="1255" y="607"/>
      <point x="1247" y="614"/>
      <point x="1227" y="614" type="curve" smooth="yes"/>
      <point x="1070" y="614" type="line" smooth="yes"/>
      <point x="1043" y="614"/>
      <point x="1019" y="592"/>
      <point x="1011" y="562" type="curve" smooth="yes"/>
      <point x="939" y="270" type="line" smooth="yes"/>
      <point x="905" y="137"/>
      <point x="725" y="67"/>
      <point x="537" y="67" type="curve" smooth="yes"/>
      <point x="273" y="67"/>
      <point x="128" y="314"/>
      <point x="229" y="727" type="curve" smooth="yes"/>
      <point x="321" y="1085"/>
      <point x="591" y="1344"/>
      <point x="846" y="1344" type="curve" smooth="yes"/>
      <point x="1001" y="1344"/>
      <point x="1170" y="1262"/>
      <point x="1129" y="1051" type="curve" smooth="yes"/>
      <point x="1124" y="1023"/>
      <point x="1133" y="1016"/>
      <point x="1147" y="1016" type="curve" smooth="yes"/>
      <point x="1165" y="1016"/>
      <point x="1174" y="1035"/>
      <point x="1179" y="1054" type="curve" smooth="yes"/>
      <point x="1252" y="1351" type="line" smooth="yes"/>
      <point x="1259" y="1373"/>
      <point x="1245" y="1377"/>
      <point x="1235" y="1377" type="curve" smooth="yes"/>
      <point x="1196" y="1377"/>
      <point x="1182" y="1294"/>
      <point x="1160" y="1294" type="curve" smooth="yes"/>
      <point x="1135" y="1294"/>
      <point x="1076" y="1398"/>
      <point x="877" y="1398" type="curve" smooth="yes"/>
      <point x="560" y="1398"/>
      <point x="262" y="1118"/>
      <point x="163" y="737" type="curve" smooth="yes"/>
      <point x="54" y="307"/>
      <point x="201" y="7"/>
      <point x="519" y="7" type="curve" smooth="yes"/>
      <point x="770" y="7"/>
      <point x="857" y="101"/>
      <point x="881" y="101" type="curve" smooth="yes"/>
      <point x="909" y="101"/>
      <point x="871" y="7"/>
      <point x="917" y="7" type="curve" smooth="yes"/>
      <point x="935" y="7"/>
      <point x="948" y="24"/>
    </contour>
    <contour>
      <point x="710" y="707" type="curve" smooth="yes"/>
      <point x="809" y="1107"/>
      <point x="881" y="1322"/>
      <point x="916" y="1460" type="curve" smooth="yes"/>
      <point x="928" y="1507"/>
      <point x="914" y="1529"/>
      <point x="890" y="1529" type="curve" smooth="yes"/>
      <point x="860" y="1529"/>
      <point x="834" y="1504"/>
      <point x="823" y="1460" type="curve" smooth="yes"/>
      <point x="787" y="1319"/>
      <point x="751" y="1105"/>
      <point x="652" y="707" type="curve" smooth="yes"/>
      <point x="553" y="304"/>
      <point x="480" y="87"/>
      <point x="446" y="-50" type="curve" smooth="yes"/>
      <point x="434" y="-100"/>
      <point x="449" y="-123"/>
      <point x="474" y="-123" type="curve" smooth="yes"/>
      <point x="503" y="-123"/>
      <point x="527" y="-99"/>
      <point x="538" y="-54" type="curve" smooth="yes"/>
      <point x="573" y="88"/>
      <point x="611" y="305"/>
    </contour>
  </outline>
</glyph>
<glyph name="horncmb" format="2">
  <advance width="406"/>
  <outline>
    <contour>
      <point x="433" y="1036" type="curve" smooth="yes"/>
      <point x="441" y="1071"/>
      <point x="428" y="1091"/>
      <point x="402" y="1091" type="curve" smooth="yes"/>
      <point x="372" y="1091"/>
      <point x="349" y="1072"/>
      <point x="341" y="1040" type="curve" smooth="yes"/>
      <point x="328" y="984" type="line" smooth="yes"/>
      <point x="303" y="881"/>
      <point x="187" y="817"/>
      <point x="58" y="853" type="curve" smooth="yes"/>
      <point x="48" y="856"/>
      <point x="38" y="847"/>
      <point x="34" y="836" type="curve" smooth="yes"/>
      <point x="33" y="827"/>
      <point x="37" y="821"/>
      <point x="50" y="818" type="curve" smooth="yes"/>
      <point x="230" y="773"/>
      <point x="396" y="879"/>
    </contour>
  </outline>
</glyph>
<glyph name="numbersign" format="2">
  <advance width="1125"/>
  <outline>
    <contour>
      <point x="499" y="686" type="curve" smooth="yes"/>
      <point x="584" y="857"/>
      <point x="742" y="1176"/>
      <point x="815" y="1318" type="curve" smooth="yes"/>
      <point x="838" y="1364"/>
      <point x="838" y="1385"/>
      <point x="823" y="1390" type="curve" smooth="yes"/>
      <point x="805" y="1398"/>
      <point x="784" y="1381"/>
      <point x="763" y="1339" type="curve" smooth="yes"/>
      <point x="694" y="1197"/>
      <point x="541" y="885"/>
      <point x="457" y="715" type="curve" smooth="yes"/>
      <point x="370" y="536"/>
      <point x="196" y="213"/>
      <point x="120" y="62" type="curve" smooth="yes"/>
      <point x="103" y="27"/>
      <point x="103" y="3"/>
      <point x="121" y="-1" type="curve" smooth="yes"/>
      <point x="141" y="-5"/>
      <point x="159" y="11"/>
      <point x="178" y="46" type="curve" smooth="yes"/>
      <point x="245" y="179"/>
      <point x="412" y="509"/>
    </contour>
    <contour>
      <point x="723" y="900" type="curve" smooth="yes"/>
      <point x="840" y="900"/>
      <point x="1054" y="891"/>
      <point x="1154" y="889" type="curve" smooth="yes"/>
      <point x="1187" y="890"/>
      <point x="1211" y="903"/>
      <point x="1218" y="927" type="curve" smooth="yes"/>
      <point x="1223" y="949"/>
      <point x="1206" y="959"/>
      <point x="1172" y="959" type="curve" smooth="yes"/>
      <point x="1073" y="957"/>
      <point x="856" y="954"/>
      <point x="737" y="954" type="curve" smooth="yes"/>
      <point x="611" y="952"/>
      <point x="388" y="966"/>
      <point x="281" y="965" type="curve" smooth="yes"/>
      <point x="253" y="965"/>
      <point x="235" y="953"/>
      <point x="229" y="931" type="curve" smooth="yes"/>
      <point x="224" y="907"/>
      <point x="236" y="894"/>
      <point x="266" y="895" type="curve" smooth="yes"/>
      <point x="370" y="894"/>
      <point x="599" y="898"/>
    </contour>
    <contour>
      <point x="797" y="686" type="curve" smooth="yes"/>
      <point x="881" y="857"/>
      <point x="1039" y="1176"/>
      <point x="1114" y="1318" type="curve" smooth="yes"/>
      <point x="1135" y="1364"/>
      <point x="1137" y="1385"/>
      <point x="1120" y="1390" type="curve" smooth="yes"/>
      <point x="1102" y="1398"/>
      <point x="1081" y="1381"/>
      <point x="1061" y="1339" type="curve" smooth="yes"/>
      <point x="990" y="1197"/>
      <point x="838" y="885"/>
      <point x="755" y="715" type="curve" smooth="yes"/>
      <point x="665" y="536"/>
      <point x="492" y="213"/>
      <point x="417" y="62" type="curve" smooth="yes"/>
      <point x="400" y="27"/>
      <point x="400" y="3"/>
      <point x="419" y="-1" type="curve" smooth="yes"/>
      <point x="438" y="-5"/>
      <point x="457" y="11"/>
      <point x="476" y="46" type="curve" smooth="yes"/>
      <point x="541" y="180"/>
      <point x="708" y="509"/>
    </contour>
    <contour>
      <point x="532" y="465" type="curve" smooth="yes"/>
      <point x="651" y="465"/>
      <point x="865" y="456"/>
      <point x="964" y="454" type="curve" smooth="yes"/>
      <point x="997" y="455"/>
      <point x="1022" y="467"/>
      <point x="1029" y="492" type="curve" smooth="yes"/>
      <point x="1033" y="513"/>
      <point x="1016" y="523"/>
      <point x="983" y="523" type="curve" smooth="yes"/>
      <point x="882" y="521"/>
      <point x="665" y="518"/>
      <point x="547" y="518" type="curve" smooth="yes"/>
      <point x="422" y="516"/>
      <point x="199" y="530"/>
      <point x="93" y="529" type="curve" smooth="yes"/>
      <point x="65" y="529"/>
      <point x="44" y="518"/>
      <point x="40" y="496" type="curve" smooth="yes"/>
      <point x="34" y="472"/>
      <point x="45" y="459"/>
      <point x="76" y="460" type="curve" smooth="yes"/>
      <point x="179" y="459"/>
      <point x="411" y="463"/>
    </contour>
  </outline>
</glyph>
<glyph name="ring.cap" format="2">
  <advance width="360"/>
  <anchor x="210" y="943" name="center"/>
  <outline>
    <contour>
      <point x="180" y="1063" type="curve" smooth="yes"/>
      <point x="264" y="1063"/>
      <point x="351" y="1138"/>
      <point x="373" y="1229" type="curve" smooth="yes"/>
      <point x="395" y="1318"/>
      <point x="344" y="1393"/>
      <point x="260" y="1393" type="curve" smooth="yes"/>
      <point x="175" y="1393"/>
      <point x="88" y="1318"/>
      <point x="66" y="1229" type="curve" smooth="yes"/>
      <point x="44" y="1138"/>
      <point x="95" y="1063"/>
    </contour>
    <contour>
      <point x="248" y="1346" type="curve" smooth="yes"/>
      <point x="306" y="1346"/>
      <point x="342" y="1293"/>
      <point x="326" y="1229" type="curve" smooth="yes"/>
      <point x="310" y="1164"/>
      <point x="250" y="1110"/>
      <point x="192" y="1110" type="curve" smooth="yes"/>
      <point x="133" y="1110"/>
      <point x="98" y="1164"/>
      <point x="113" y="1229" type="curve" smooth="yes"/>
      <point x="129" y="1293"/>
      <point x="190" y="1346"/>
    </contour>
  </outline>
</glyph>
<glyph name="ringcmb" format="2">
  <advance width="341"/>
  <anchor x="210.39823008849558" y="943" name="center"/>
  <outline>
    <contour>
      <point x="171" y="977" type="curve" smooth="yes"/>
      <point x="249" y="977"/>
      <point x="330" y="1046"/>
      <point x="351" y="1131" type="curve" smooth="yes"/>
      <point x="371" y="1214"/>
      <point x="323" y="1283"/>
      <point x="245" y="1283" type="curve" smooth="yes"/>
      <point x="165" y="1283"/>
      <point x="84" y="1214"/>
      <point x="64" y="1131" type="curve" smooth="yes"/>
      <point x="44" y="1046"/>
      <point x="92" y="977"/>
    </contour>
    <contour>
      <point x="233" y="1237" type="curve" smooth="yes"/>
      <point x="286" y="1237"/>
      <point x="317" y="1190"/>
      <point x="304" y="1131" type="curve" smooth="yes"/>
      <point x="289" y="1072"/>
      <point x="235" y="1023"/>
      <point x="182" y="1023" type="curve" smooth="yes"/>
      <point x="130" y="1023"/>
      <point x="97" y="1072"/>
      <point x="112" y="1131" type="curve" smooth="yes"/>
      <point x="125" y="1190"/>
      <point x="181" y="1237"/>
    </contour>
  </outline>
</glyph>
<glyph name="tildecmb" format="2">
  <advance width="460"/>
  <anchor x="275" y="1062" name="center"/>
  <outline>
    <contour>
      <point x="333" y="976" type="curve" smooth="yes"/>
      <point x="395" y="976"/>
      <point x="444" y="1023"/>
      <point x="470" y="1125" type="curve" smooth="yes"/>
      <point x="475" y="1146"/>
      <point x="468" y="1153"/>
      <point x="457" y="1153" type="curve" smooth="yes"/>
      <point x="441" y="1153"/>
      <point x="432" y="1143"/>
      <point x="428" y="1125" type="curve" smooth="yes"/>
      <point x="413" y="1067"/>
      <point x="390" y="1038"/>
      <point x="354" y="1038" type="curve" smooth="yes"/>
      <point x="289" y="1038"/>
      <point x="268" y="1157"/>
      <point x="172" y="1157" type="curve" smooth="yes"/>
      <point x="110" y="1157"/>
      <point x="60" y="1109"/>
      <point x="35" y="1007" type="curve" smooth="yes"/>
      <point x="30" y="988"/>
      <point x="37" y="981"/>
      <point x="49" y="981" type="curve" smooth="yes"/>
      <point x="62" y="981"/>
      <point x="73" y="992"/>
      <point x="77" y="1007" type="curve" smooth="yes"/>
      <point x="91" y="1068"/>
      <point x="116" y="1096"/>
      <point x="152" y="1096" type="curve" smooth="yes"/>
      <point x="214" y="1096"/>
      <point x="237" y="976"/>
    </contour>
  </outline>
</glyph>
<glyph name="turkishlira" format="2">
  <advance width="1052"/>
  <outline>
    <contour>
      <point x="292" y="62" type="curve" smooth="yes"/>
      <point x="261" y="62"/>
      <point x="249" y="84"/>
      <point x="259" y="123" type="curve" smooth="yes"/>
      <point x="567" y="1365" type="line" smooth="yes"/>
      <point x="572" y="1388"/>
      <point x="568" y="1401"/>
      <point x="549" y="1401" type="curve" smooth="yes"/>
      <point x="531" y="1401" type="line" smooth="yes"/>
      <point x="514" y="1401"/>
      <point x="499" y="1387"/>
      <point x="493" y="1366" type="curve" smooth="yes"/>
      <point x="173" y="74" type="line" smooth="yes"/>
      <point x="161" y="28"/>
      <point x="172" y="0"/>
      <point x="207" y="0" type="curve" smooth="yes"/>
      <point x="245" y="0" type="line" smooth="yes"/>
      <point x="609" y="0"/>
      <point x="959" y="259"/>
      <point x="1057" y="651" type="curve" smooth="yes"/>
      <point x="1064" y="680"/>
      <point x="1056" y="691"/>
      <point x="1041" y="691" type="curve" smooth="yes"/>
      <point x="1023" y="691" type="line" smooth="yes"/>
      <point x="1006" y="691"/>
      <point x="989" y="676"/>
      <point x="983" y="651" type="curve" smooth="yes"/>
      <point x="896" y="299"/>
      <point x="571" y="62"/>
    </contour>
    <contour>
      <point x="137" y="648" type="curve" smooth="yes"/>
      <point x="143" y="634"/>
      <point x="156" y="633"/>
      <point x="174" y="644" type="curve" smooth="yes"/>
      <point x="888" y="1101" type="line" smooth="yes"/>
      <point x="907" y="1114"/>
      <point x="917" y="1131"/>
      <point x="910" y="1146" type="curve" smooth="yes"/>
      <point x="905" y="1158"/>
      <point x="888" y="1159"/>
      <point x="869" y="1147" type="curve" smooth="yes"/>
      <point x="158" y="690" type="line" smooth="yes"/>
      <point x="141" y="680"/>
      <point x="131" y="661"/>
    </contour>
    <contour>
      <point x="109" y="424" type="curve" smooth="yes"/>
      <point x="116" y="411"/>
      <point x="129" y="409"/>
      <point x="146" y="420" type="curve" smooth="yes"/>
      <point x="814" y="848" type="line" smooth="yes"/>
      <point x="834" y="860"/>
      <point x="844" y="878"/>
      <point x="837" y="892" type="curve" smooth="yes"/>
      <point x="831" y="905"/>
      <point x="815" y="905"/>
      <point x="795" y="892" type="curve" smooth="yes"/>
      <point x="132" y="467" type="line" smooth="yes"/>
      <point x="114" y="456"/>
      <point x="105" y="438"/>
    </contour>
  </outline>
</glyph>
<glyph name="turnedcommaabovecmb" format="2">
  <advance width="165"/>
  <outline>
    <contour>
      <point x="102" y="1248" type="curve" smooth="yes"/>
      <point x="33" y="1041" type="line" smooth="yes"/>
      <point x="31" y="1031"/>
      <point x="29" y="1019"/>
      <point x="38" y="1018" type="curve" smooth="yes"/>
      <point x="46" y="1016"/>
      <point x="56" y="1022"/>
      <point x="60" y="1029" type="curve" smooth="yes"/>
      <point x="172" y="1236" type="line" smooth="yes"/>
      <point x="192" y="1269"/>
      <point x="209" y="1297"/>
      <point x="206" y="1320" type="curve" smooth="yes"/>
      <point x="204" y="1339"/>
      <point x="185" y="1348"/>
      <point x="162" y="1341" type="curve" smooth="yes"/>
      <point x="129" y="1330"/>
      <point x="119" y="1299"/>
    </contour>
  </outline>
</glyph>
<glyph name="won" format="2">
  <advance width="1677"/>
  <outline>
    <contour>
      <point x="1489" y="1380" type="curve" smooth="yes"/>
      <point x="1485" y="1364"/>
      <point x="1496" y="1355"/>
      <point x="1517" y="1354" type="curve" smooth="yes"/>
      <point x="1611" y="1344" type="line" smooth="yes"/>
      <point x="1661" y="1340"/>
      <point x="1658" y="1325"/>
      <point x="1629" y="1263" type="curve" smooth="yes"/>
      <point x="1084" y="60" type="line"/>
      <point x="1098" y="58" type="line"/>
      <point x="1111" y="1290" type="line" smooth="yes"/>
      <point x="1111" y="1319"/>
      <point x="1103" y="1332"/>
      <point x="1089" y="1332" type="curve" smooth="yes"/>
      <point x="1077" y="1332" type="line" smooth="yes"/>
      <point x="1047" y="1332"/>
      <point x="1025" y="1318"/>
      <point x="1009" y="1285" type="curve" smooth="yes"/>
      <point x="401" y="69" type="line"/>
      <point x="423" y="69" type="line"/>
      <point x="460" y="1275" type="line" smooth="yes"/>
      <point x="462" y="1334"/>
      <point x="463" y="1341"/>
      <point x="498" y="1344" type="curve" smooth="yes"/>
      <point x="597" y="1354" type="line" smooth="yes"/>
      <point x="619" y="1356"/>
      <point x="634" y="1364"/>
      <point x="638" y="1379" type="curve" smooth="yes"/>
      <point x="642" y="1393"/>
      <point x="633" y="1400"/>
      <point x="614" y="1400" type="curve" smooth="yes"/>
      <point x="329" y="1400" type="line" smooth="yes"/>
      <point x="309" y="1400"/>
      <point x="296" y="1393"/>
      <point x="292" y="1379" type="curve" smooth="yes"/>
      <point x="288" y="1365"/>
      <point x="300" y="1357"/>
      <point x="320" y="1354" type="curve" smooth="yes"/>
      <point x="362" y="1345" type="line" smooth="yes"/>
      <point x="383" y="1342"/>
      <point x="397" y="1328"/>
      <point x="396" y="1298" type="curve" smooth="yes"/>
      <point x="355" y="44" type="line" smooth="yes"/>
      <point x="354" y="16"/>
      <point x="364" y="0"/>
      <point x="380" y="0" type="curve" smooth="yes"/>
      <point x="399" y="0" type="line" smooth="yes"/>
      <point x="420" y="0"/>
      <point x="435" y="18"/>
      <point x="447" y="42" type="curve" smooth="yes"/>
      <point x="1064" y="1288" type="line"/>
      <point x="1051" y="1288" type="line"/>
      <point x="1033" y="47" type="line" smooth="yes"/>
      <point x="1033" y="17"/>
      <point x="1038" y="0"/>
      <point x="1070" y="0" type="curve" smooth="yes"/>
      <point x="1084" y="0" type="line" smooth="yes"/>
      <point x="1103" y="0"/>
      <point x="1118" y="19"/>
      <point x="1131" y="47" type="curve" smooth="yes"/>
      <point x="1688" y="1266" type="line" smooth="yes"/>
      <point x="1714" y="1319"/>
      <point x="1740" y="1340"/>
      <point x="1769" y="1346" type="curve" smooth="yes"/>
      <point x="1815" y="1354" type="line" smooth="yes"/>
      <point x="1839" y="1359"/>
      <point x="1853" y="1364"/>
      <point x="1858" y="1379" type="curve" smooth="yes"/>
      <point x="1860" y="1391"/>
      <point x="1852" y="1400"/>
      <point x="1833" y="1400" type="curve" smooth="yes"/>
      <point x="1525" y="1400" type="line" smooth="yes"/>
      <point x="1505" y="1400"/>
      <point x="1493" y="1394"/>
    </contour>
    <contour>
      <point x="400" y="911" type="line"/>
      <point x="201" y="911" type="line" smooth="yes"/>
      <point x="182" y="911"/>
      <point x="165" y="901"/>
      <point x="161" y="884" type="curve" smooth="yes"/>
      <point x="158" y="869"/>
      <point x="168" y="858"/>
      <point x="188" y="858" type="curve" smooth="yes"/>
      <point x="400" y="858" type="line"/>
    </contour>
    <contour>
      <point x="850" y="906" type="line"/>
      <point x="427" y="906" type="line"/>
      <point x="427" y="853" type="line"/>
      <point x="815" y="853" type="line"/>
    </contour>
    <contour>
      <point x="1725" y="883" type="curve" smooth="yes"/>
      <point x="1728" y="899"/>
      <point x="1721" y="909"/>
      <point x="1702" y="909" type="curve" smooth="yes"/>
      <point x="1089" y="909" type="line"/>
      <point x="1097" y="856" type="line"/>
      <point x="1686" y="856" type="line" smooth="yes"/>
      <point x="1703" y="856"/>
      <point x="1720" y="867"/>
    </contour>
    <contour>
      <point x="409" y="497" type="line"/>
      <point x="146" y="497" type="line" smooth="yes"/>
      <point x="125" y="497"/>
      <point x="108" y="486"/>
      <point x="103" y="466" type="curve" smooth="yes"/>
      <point x="100" y="451"/>
      <point x="110" y="440"/>
      <point x="131" y="440" type="curve" smooth="yes"/>
      <point x="417" y="440" type="line"/>
    </contour>
    <contour>
      <point x="1576" y="473" type="curve" smooth="yes"/>
      <point x="1581" y="489"/>
      <point x="1572" y="498"/>
      <point x="1554" y="498" type="curve" smooth="yes"/>
      <point x="1314" y="498" type="line"/>
      <point x="1286" y="446" type="line"/>
      <point x="1538" y="446" type="line" smooth="yes"/>
      <point x="1555" y="446"/>
      <point x="1572" y="457"/>
    </contour>
    <contour>
      <point x="1073" y="505" type="line"/>
      <point x="646" y="505" type="line"/>
      <point x="628" y="453" type="line"/>
      <point x="1083" y="453" type="line"/>
    </contour>
  </outline>
</glyph>
